<?xml version="1.0" standalone="no"?>
<!DOCTYPE svg PUBLIC "-//W3C//DTD SVG 20010904//EN"
 "http://www.w3.org/TR/2001/REC-SVG-20010904/DTD/svg10.dtd">
<svg version="1.0" xmlns="http://www.w3.org/2000/svg"
 width="117.000000pt" height="70.000000pt" viewBox="0 0 117.000000 70.000000"
 preserveAspectRatio="xMidYMid meet">
<metadata>
Created by potrace 1.10, written by Peter Selinger 2001-2011
</metadata>
<g transform="translate(0.000000,70.000000) scale(0.100000,-0.100000)"
fill="#ff0000" stroke="none">
<path d="M1142 550 c-8 -13 -12 -66 -12 -161 0 -121 2 -140 15 -137 13 2 16
29 18 161 1 86 0 157 -3 157 -3 0 -11 -9 -18 -20z"/>
<path d="M337 453 c-4 -3 -7 -51 -7 -105 0 -89 2 -99 18 -96 12 2 16 11 14 31
-4 36 9 34 30 -3 10 -18 25 -30 38 -30 22 0 27 15 7 27 -7 4 -20 20 -30 35
-16 26 -16 28 5 42 12 9 19 19 15 23 -4 3 -21 -7 -38 -23 l-31 -29 4 68 c4 63
-4 82 -25 60z"/>
<path d="M1067 453 c-4 -3 -7 -51 -7 -105 0 -85 2 -99 16 -96 12 2 15 22 17
106 2 96 -4 118 -26 95z"/>
<path d="M545 432 c-41 -25 -56 -45 -65 -87 -12 -52 5 -100 44 -130 93 -71
216 -14 216 100 0 102 -111 168 -195 117z m142 -40 c25 -23 26 -26 9 -32 -21
-7 -101 -4 -115 4 -5 3 -11 17 -13 30 -4 20 0 26 16 28 40 6 76 -4 103 -30z
m-135 -22 c-4 -26 -2 -30 18 -28 28 4 45 -21 36 -55 -6 -27 -35 -42 -63 -33
-15 5 -18 17 -17 69 0 35 4 69 8 75 12 21 23 5 18 -28z m107 -55 c13 -27 15
-28 21 -10 4 11 5 26 3 33 -3 6 2 12 11 12 25 0 19 -31 -20 -93 -26 -41 -42
-57 -57 -57 -21 1 -20 2 6 21 32 24 34 42 8 92 -17 34 -18 38 -3 35 9 -2 23
-17 31 -33z m-29 -54 c0 -28 -47 -55 -74 -43 -20 9 -19 10 12 16 18 5 38 16
45 27 15 24 17 24 17 0z"/>
<path d="M550 301 c0 -21 5 -31 16 -31 11 0 14 8 12 27 -4 39 -28 42 -28 4z"/>
<path d="M101 421 c-6 -10 -20 -45 -32 -77 -12 -33 -25 -63 -30 -68 -13 -15
-11 -26 5 -26 8 0 19 15 25 33 10 28 16 33 45 34 30 1 35 -3 40 -28 5 -27 30
-48 41 -37 3 2 -9 46 -26 96 -31 93 -48 111 -68 73z m39 -88 c0 -2 -12 -3 -26
-3 -24 0 -25 2 -19 33 11 50 17 52 31 11 8 -22 14 -40 14 -41z"/>
<path d="M775 428 c-3 -8 -5 -50 -3 -94 2 -65 6 -79 20 -82 15 -3 17 7 17 78
0 45 2 84 5 87 3 3 12 3 21 0 20 -8 20 -63 0 -71 -21 -8 -19 -27 3 -19 48 17
68 67 37 93 -23 19 -94 25 -100 8z"/>
<path d="M226 361 c-21 -23 -16 -36 26 -57 23 -12 27 -19 19 -27 -9 -9 -16 -8
-31 1 -14 8 -21 8 -26 1 -15 -25 40 -38 70 -16 25 18 17 49 -17 65 -33 16 -36
34 -4 30 12 -2 23 2 25 7 5 19 -44 16 -62 -4z"/>
<path d="M932 364 c-46 -32 -17 -114 40 -114 26 0 58 36 58 65 0 29 -32 65
-58 65 -10 0 -28 -7 -40 -16z m56 -47 c2 -27 -1 -39 -13 -44 -20 -7 -35 12
-35 48 0 56 43 52 48 -4z"/>
<path d="M512 189 c2 -7 10 -15 17 -17 8 -3 12 1 9 9 -2 7 -10 15 -17 17 -8 3
-12 -1 -9 -9z"/>
<path d="M461 130 c-37 -44 -55 -80 -32 -65 6 3 14 -2 19 -11 7 -13 15 -5 40
40 18 31 32 60 32 65 0 26 -21 16 -59 -29z"/>
<path d="M395 49 c-7 -10 21 -49 35 -49 5 0 10 6 13 14 7 18 -39 51 -48 35z"/>
</g>
</svg>
