<?xml version="1.0" encoding="UTF-8" ?>
<!DOCTYPE svg PUBLIC "-//W3C//DTD SVG 1.1//EN" "http://www.w3.org/Graphics/SVG/1.1/DTD/svg11.dtd">
<svg width="1200pt" height="575pt" viewBox="0 0 1200 575" version="1.1" xmlns="http://www.w3.org/2000/svg">
<path fill="#e84e3f" d=" M 0.00 0.00 L 33.78 0.00 C 39.71 8.10 44.24 17.11 49.65 25.55 C 55.92 36.24 62.70 46.62 68.86 57.37 C 67.24 58.91 65.53 60.86 63.02 60.21 C 42.03 57.74 21.00 55.45 0.00 52.98 L 0.00 0.00 Z" />
<path fill="#ee7e71" d=" M 33.78 0.00 L 35.56 0.00 C 47.24 18.41 58.12 37.33 69.59 55.87 C 72.37 55.53 76.05 56.27 77.36 53.10 C 88.57 35.35 99.78 17.60 111.23 0.00 L 113.25 0.00 C 117.92 2.58 123.07 4.01 128.22 5.31 C 138.11 8.38 148.07 11.23 158.11 13.77 C 155.93 9.10 153.72 4.45 151.11 0.00 L 152.78 0.00 C 155.68 4.62 157.08 10.18 160.75 14.30 C 163.59 15.92 166.86 16.50 169.98 17.41 C 177.10 19.21 184.03 21.70 191.24 23.15 C 195.16 15.34 200.09 8.06 203.51 0.00 L 205.84 0.00 C 201.12 7.76 196.67 15.72 192.74 23.92 C 199.92 25.88 207.01 28.16 214.20 30.08 C 219.72 31.74 224.45 27.60 229.20 25.50 C 243.70 18.73 258.04 11.62 272.58 4.96 C 275.54 3.58 278.26 1.76 280.99 0.00 L 285.57 0.00 C 272.28 6.61 258.76 12.73 245.44 19.28 C 237.20 23.27 228.53 26.53 221.01 31.84 C 235.16 36.54 249.67 40.10 263.95 44.41 C 274.69 47.68 285.59 50.39 296.31 53.74 C 300.73 55.08 305.23 56.84 309.94 56.30 C 323.36 55.14 336.54 52.26 349.83 50.14 C 360.83 47.93 371.97 46.58 382.98 44.40 C 386.64 43.67 390.48 43.59 393.99 42.22 C 395.38 39.62 395.95 36.69 396.74 33.88 C 379.00 22.52 361.36 11.00 343.40 0.00 L 346.40 0.00 C 355.35 6.03 364.60 11.61 373.67 17.47 C 380.21 21.36 386.15 26.33 393.31 29.12 C 389.44 23.61 384.42 19.09 379.96 14.08 C 375.34 9.38 370.92 4.48 366.08 0.00 L 368.19 0.00 C 376.68 8.77 385.24 17.48 393.48 26.49 C 395.11 28.21 396.67 30.06 398.65 31.40 C 402.11 30.83 405.38 29.45 408.78 28.57 C 408.80 19.05 408.32 9.53 408.17 0.00 L 409.38 0.00 C 409.30 8.68 409.78 17.35 410.34 26.02 C 410.54 27.54 410.38 29.37 411.69 30.46 C 414.44 31.78 416.74 29.20 418.73 27.68 C 426.12 21.10 433.43 14.41 441.10 8.14 C 444.23 5.65 447.02 2.78 449.88 0.00 L 452.39 0.00 C 443.40 7.76 434.46 15.60 425.45 23.34 C 422.32 26.20 418.54 28.48 416.17 32.07 C 416.88 35.57 418.52 38.78 419.82 42.08 C 426.98 43.00 434.02 44.67 441.12 45.96 C 480.16 52.76 519.03 60.44 558.07 67.16 C 581.11 71.58 604.22 75.63 627.26 80.02 C 628.43 80.28 629.60 80.30 630.78 80.10 C 633.72 76.21 635.35 71.56 637.16 67.09 C 603.29 44.65 569.20 22.53 535.39 0.00 L 537.99 0.00 C 570.98 22.29 604.62 43.63 637.58 65.97 C 643.93 55.42 648.74 43.98 653.70 32.73 C 656.63 28.53 660.69 25.26 663.77 21.17 C 662.10 14.20 660.99 7.11 660.08 0.00 L 661.35 0.00 C 662.39 6.64 663.41 13.28 664.84 19.85 C 671.62 13.73 677.92 7.08 683.69 0.00 L 686.58 0.00 C 682.02 4.28 677.91 9.01 673.48 13.42 C 670.84 16.29 667.75 18.81 665.62 22.10 C 664.88 24.85 666.14 27.70 666.56 30.43 C 679.71 25.27 692.44 19.08 705.43 13.55 C 714.93 8.97 725.06 5.64 734.02 0.00 L 739.33 0.00 C 724.21 6.47 709.25 13.35 694.19 19.96 C 684.69 24.32 674.89 28.09 665.73 33.14 C 669.77 36.65 675.26 37.02 680.25 38.18 C 682.46 38.61 684.68 39.18 686.96 39.13 C 689.42 38.10 691.51 36.37 693.97 35.32 C 697.63 35.21 701.02 38.43 704.69 36.94 C 724.71 29.37 744.53 21.27 764.60 13.85 C 767.95 12.71 770.75 10.50 773.20 8.01 C 773.96 8.14 775.46 8.40 776.22 8.53 C 775.55 9.84 775.63 12.02 773.80 12.24 C 769.93 13.44 765.96 14.35 762.23 15.97 C 751.04 20.53 739.72 24.76 728.48 29.20 C 719.67 32.71 710.65 35.70 702.05 39.70 C 702.46 40.44 703.28 41.91 703.69 42.65 C 751.73 39.44 799.72 35.25 847.76 31.97 C 880.48 29.07 913.28 27.19 946.00 24.31 C 947.12 20.66 948.39 17.05 949.82 13.50 C 944.73 8.78 939.42 4.29 933.97 0.00 L 936.07 0.00 C 941.52 4.08 946.31 9.00 952.09 12.66 C 952.66 11.45 953.19 10.22 953.68 8.96 C 952.70 5.53 950.37 2.70 948.13 0.00 L 950.05 0.00 C 952.01 2.83 953.79 5.80 955.66 8.70 C 958.65 7.78 961.87 7.15 964.44 5.23 C 964.50 3.49 964.39 1.74 964.24 0.00 L 965.81 0.00 C 965.72 2.02 965.64 4.04 965.58 6.06 C 969.03 7.24 972.70 8.17 975.65 10.44 C 978.61 12.76 980.35 16.18 982.23 19.36 C 990.04 16.25 997.65 12.67 1005.41 9.46 C 1012.30 6.49 1019.51 4.13 1025.84 0.00 L 1032.31 0.00 C 1024.17 2.38 1016.71 6.52 1008.79 9.49 C 999.95 13.47 990.76 16.69 982.23 21.33 C 988.41 22.92 994.81 23.17 1001.11 24.05 C 1029.67 27.31 1058.26 30.37 1086.81 33.72 C 1089.86 34.31 1092.72 33.01 1095.28 31.47 C 1090.46 21.03 1086.28 10.30 1081.16 0.00 L 1082.60 0.00 C 1088.13 10.06 1091.48 21.18 1097.31 31.08 C 1097.82 20.72 1097.16 10.31 1096.07 0.00 L 1097.48 0.00 C 1098.04 5.65 1098.59 11.31 1098.47 17.00 C 1098.50 20.79 1098.11 24.68 1099.12 28.38 C 1099.63 30.59 1102.11 31.22 1103.75 32.42 C 1110.60 24.34 1117.00 15.90 1123.94 7.90 C 1126.08 5.43 1127.83 2.65 1129.75 0.00 L 1132.07 0.00 C 1123.29 11.10 1114.01 21.80 1105.15 32.83 C 1105.82 35.21 1106.49 37.59 1107.17 39.97 C 1138.16 43.02 1169.04 47.05 1200.00 50.45 L 1200.00 51.77 C 1178.95 49.69 1158.00 46.69 1136.96 44.56 C 1127.03 43.53 1117.17 41.89 1107.20 41.28 C 1104.87 43.70 1102.42 46.00 1099.83 48.15 C 1106.56 76.03 1114.41 103.63 1121.27 131.49 C 1125.47 146.52 1129.21 161.69 1133.25 176.77 C 1135.81 177.82 1138.38 178.86 1140.96 179.90 C 1160.63 164.88 1180.18 149.70 1200.00 134.89 L 1200.00 136.42 C 1185.72 147.28 1171.52 158.24 1157.25 169.11 C 1153.17 172.08 1149.08 175.09 1145.71 178.88 C 1154.96 175.66 1163.31 170.40 1172.20 166.36 C 1181.41 161.46 1190.96 157.19 1200.00 152.00 L 1200.00 153.60 C 1193.58 157.56 1186.45 160.15 1179.88 163.83 C 1169.74 169.02 1159.62 174.23 1149.34 179.13 C 1146.52 180.43 1143.93 182.15 1141.54 184.11 C 1161.00 184.97 1180.52 184.14 1200.00 184.36 L 1200.00 185.59 C 1181.23 185.82 1162.40 184.90 1143.69 186.69 C 1149.58 186.83 1155.49 186.95 1161.36 187.66 C 1168.72 188.57 1176.15 188.17 1183.54 188.80 C 1189.00 189.27 1194.51 189.87 1200.00 189.25 L 1200.00 191.25 C 1181.25 190.19 1162.53 188.69 1143.80 187.46 C 1141.85 189.95 1140.15 192.83 1137.39 194.50 C 1135.22 195.45 1132.77 195.29 1130.48 195.55 C 1124.75 204.65 1119.81 214.23 1114.29 223.45 C 1112.85 225.86 1111.74 228.44 1110.66 231.02 C 1134.69 225.59 1158.58 219.55 1182.55 213.80 C 1188.38 212.40 1194.31 211.28 1200.00 209.29 L 1200.00 210.74 C 1189.77 214.01 1179.16 215.91 1168.76 218.54 C 1156.52 221.76 1144.10 224.26 1131.86 227.52 C 1124.41 229.63 1116.43 230.20 1109.33 233.34 C 1104.89 237.91 1102.67 244.12 1099.58 249.60 C 1133.01 252.58 1166.53 254.66 1200.00 257.19 L 1200.00 258.65 C 1174.34 256.65 1148.68 254.62 1122.99 252.98 C 1114.21 252.45 1105.45 250.94 1096.64 251.69 C 1097.52 253.12 1098.63 254.60 1100.48 254.71 C 1123.57 258.32 1146.48 262.96 1169.51 266.92 C 1179.71 268.40 1189.74 270.97 1200.00 272.11 L 1200.00 273.50 C 1166.21 268.06 1132.62 261.37 1098.87 255.77 C 1095.20 254.47 1094.35 258.82 1092.84 261.13 C 1102.11 264.43 1111.30 267.95 1120.44 271.58 C 1142.87 279.80 1165.20 288.29 1187.50 296.85 C 1191.59 298.50 1195.83 299.77 1200.00 301.24 L 1200.00 302.84 C 1172.86 292.70 1145.75 282.47 1118.67 272.18 C 1109.68 269.16 1101.06 265.10 1091.89 262.61 C 1090.18 265.41 1088.57 268.26 1087.04 271.16 C 1094.14 277.12 1101.82 282.34 1109.15 288.00 C 1118.62 294.79 1127.60 302.23 1137.05 309.03 C 1140.33 311.45 1144.57 311.40 1148.46 311.86 C 1165.66 313.46 1182.72 316.69 1200.00 317.42 L 1200.00 319.53 C 1181.05 316.64 1161.93 314.99 1142.91 312.68 C 1148.75 318.45 1155.73 322.85 1162.12 327.96 C 1174.78 337.40 1187.33 346.98 1200.00 356.41 L 1200.00 358.41 C 1182.91 344.93 1165.25 332.19 1148.01 318.90 C 1144.16 316.30 1140.79 312.45 1136.00 311.71 C 1122.30 310.16 1108.60 308.50 1094.89 306.97 C 1085.94 306.17 1077.12 304.19 1068.12 304.08 C 1060.52 317.22 1053.24 330.52 1045.51 343.57 C 1041.63 350.55 1036.82 357.15 1034.69 364.95 C 1044.44 365.65 1054.23 365.33 1064.00 365.75 C 1080.36 366.89 1096.78 365.77 1113.15 366.84 C 1121.96 367.67 1130.90 367.78 1139.68 366.41 C 1139.66 367.48 1139.66 368.56 1139.68 369.64 C 1133.31 368.46 1126.84 368.54 1120.41 368.33 C 1105.32 366.79 1090.13 368.00 1075.00 367.41 C 1063.31 367.79 1051.68 366.03 1039.99 366.42 C 1035.86 366.05 1033.51 370.15 1032.35 373.50 C 1024.12 400.94 1015.57 428.29 1007.32 455.73 C 1005.98 459.76 1004.81 463.85 1003.96 468.01 C 1009.42 470.99 1014.92 474.16 1019.14 478.82 C 1023.34 483.18 1025.92 488.73 1028.66 494.05 C 1048.05 486.62 1067.54 479.46 1086.95 472.10 C 1093.65 469.50 1100.52 467.36 1107.07 464.37 C 1102.94 450.93 1099.45 437.30 1094.83 424.01 C 1096.36 424.12 1097.92 424.20 1099.49 424.23 C 1097.22 431.14 1100.65 437.83 1102.41 444.41 C 1104.56 450.94 1106.19 457.63 1108.38 464.15 C 1126.96 457.14 1145.54 450.15 1164.15 443.22 C 1176.04 438.47 1188.35 434.76 1200.00 429.44 L 1200.00 431.23 C 1169.67 442.62 1139.34 454.05 1108.94 465.26 C 1111.63 476.72 1115.47 487.87 1118.61 499.21 C 1120.68 506.74 1122.94 514.23 1125.29 521.69 C 1127.60 522.90 1129.90 524.13 1132.21 525.38 C 1149.26 518.64 1166.04 511.23 1183.07 504.45 C 1188.68 501.94 1194.53 499.95 1200.00 497.12 L 1200.00 498.48 C 1193.92 501.78 1187.31 503.90 1180.99 506.69 C 1168.79 511.88 1156.46 516.74 1144.30 522.02 C 1140.06 523.93 1135.37 525.10 1131.68 528.03 C 1130.78 530.61 1132.74 532.86 1134.05 534.89 C 1143.71 548.19 1153.02 561.75 1162.75 575.00 L 1160.89 575.00 C 1150.87 560.61 1140.56 546.43 1130.50 532.06 C 1128.92 532.23 1127.33 532.32 1125.80 532.66 C 1124.50 534.01 1123.74 535.75 1122.94 537.41 C 1118.32 547.68 1113.70 557.95 1108.90 568.14 C 1107.90 570.35 1107.12 572.65 1106.52 575.00 L 1104.20 575.00 C 1110.27 562.27 1115.91 549.34 1121.94 536.59 C 1123.37 534.02 1123.45 531.10 1122.87 528.29 C 1113.54 528.78 1104.27 529.95 1094.95 530.50 C 1092.65 533.67 1089.01 536.62 1089.33 540.92 C 1089.46 552.29 1090.65 563.62 1090.56 575.00 L 1083.71 575.00 C 1079.31 571.76 1075.02 568.36 1070.42 565.41 C 1068.39 563.75 1065.87 562.59 1064.40 560.35 C 1066.82 560.84 1068.87 562.67 1070.97 564.03 C 1075.99 567.88 1081.17 571.54 1086.55 574.91 C 1086.53 562.25 1086.80 549.53 1085.31 536.93 C 1083.86 536.14 1082.42 535.34 1080.99 534.56 C 1073.42 541.29 1065.85 548.02 1058.34 554.80 C 1060.30 556.44 1062.31 558.04 1064.10 559.88 C 1061.48 559.00 1059.14 557.50 1056.76 556.16 C 1052.86 559.35 1049.12 562.73 1045.41 566.15 C 1048.10 569.11 1050.68 572.19 1053.54 575.00 L 1051.75 575.00 C 1049.18 572.38 1046.69 569.70 1044.05 567.16 C 1041.29 569.68 1038.71 572.39 1036.04 575.00 L 1033.44 575.00 C 1036.90 572.32 1039.96 569.17 1043.09 566.11 C 1034.27 557.06 1025.71 547.78 1016.85 538.79 C 1013.36 540.85 1009.91 542.98 1006.48 545.16 C 1010.72 555.18 1015.12 565.15 1019.76 575.00 L 1018.07 575.00 C 1013.72 565.36 1009.69 555.57 1005.07 546.06 C 1000.07 547.51 994.97 548.60 989.81 549.29 C 989.63 557.85 989.82 566.43 989.70 575.00 L 988.55 575.00 C 988.34 566.38 988.41 557.75 988.45 549.13 C 987.58 549.15 985.83 549.18 984.96 549.20 C 984.37 557.81 982.41 566.34 982.74 575.00 L 981.20 575.00 C 981.23 566.48 982.97 558.11 983.60 549.64 C 979.67 547.58 975.12 547.18 971.17 545.16 C 969.17 544.42 967.25 542.94 965.10 543.00 C 962.21 545.17 960.28 548.31 958.07 551.11 C 952.14 559.18 945.57 566.76 939.87 575.00 L 937.77 575.00 C 946.62 563.88 955.42 552.69 963.81 541.22 C 959.79 537.84 956.12 534.08 952.88 529.97 C 941.26 536.08 930.23 543.21 918.85 549.73 C 904.54 558.03 890.30 566.47 876.12 575.00 L 872.83 575.00 C 882.36 569.97 891.35 563.99 900.78 558.77 C 917.70 548.37 935.11 538.81 952.05 528.45 C 950.55 524.64 949.40 520.62 947.09 517.20 C 941.18 517.88 935.61 520.14 929.79 521.28 C 883.92 532.56 837.98 543.60 792.10 554.85 C 791.37 558.71 790.23 562.48 788.53 566.02 C 790.71 569.02 792.93 572.00 795.13 575.00 L 793.57 575.00 C 791.57 572.49 790.02 569.56 787.51 567.51 C 783.44 567.20 779.32 567.58 775.32 568.23 C 774.61 570.43 774.29 572.73 773.91 575.00 L 772.20 575.00 C 772.85 572.28 773.53 569.56 774.20 566.85 C 772.52 564.09 770.84 561.34 769.15 558.60 C 733.95 562.03 698.75 565.58 663.51 568.65 C 663.62 570.76 663.72 572.88 663.93 575.00 L 603.87 575.00 C 603.89 570.65 604.45 566.30 604.09 561.97 C 602.76 561.12 601.31 560.52 599.84 560.00 C 540.78 540.23 481.99 519.69 422.93 499.91 C 421.79 502.07 419.61 504.29 420.74 506.91 C 424.52 520.00 428.70 532.98 432.55 546.05 C 435.70 555.67 437.96 565.57 441.66 575.00 L 438.21 575.00 C 438.60 574.59 439.37 573.76 439.76 573.34 C 432.20 550.82 426.01 527.88 418.80 505.25 C 418.13 505.17 416.80 505.02 416.13 504.95 C 415.02 519.27 413.74 533.59 413.07 547.95 C 412.65 556.97 411.15 565.95 411.73 575.00 L 410.34 575.00 C 410.12 568.65 410.52 562.30 411.20 555.99 C 412.24 540.30 413.51 524.63 414.50 508.95 C 414.98 504.96 411.37 501.83 411.63 497.96 C 413.63 494.51 418.55 494.00 420.40 490.31 C 432.34 470.22 443.85 449.87 455.85 429.81 C 457.34 427.25 458.98 424.76 460.14 422.03 C 461.48 419.62 459.93 416.37 457.49 415.41 C 453.46 413.71 449.12 413.00 444.95 411.76 C 426.98 406.64 409.04 401.41 391.01 396.52 C 379.15 393.11 367.33 389.50 355.34 386.59 C 353.63 389.29 351.37 391.57 348.62 393.21 C 348.38 406.58 348.38 419.96 348.58 433.33 C 350.43 434.50 352.61 435.37 353.99 437.15 C 355.54 439.73 353.31 442.81 350.83 443.68 C 347.40 443.57 344.42 441.37 341.05 440.86 C 334.68 439.89 328.23 439.49 321.80 439.25 C 316.89 449.12 311.84 458.92 307.17 468.90 C 311.18 472.37 315.12 476.54 315.94 481.99 C 316.98 486.99 314.39 491.64 312.29 495.98 C 323.77 509.40 334.97 523.05 346.46 536.47 C 351.74 542.36 355.77 549.74 363.16 553.35 C 363.71 561.55 369.03 568.16 373.00 575.00 L 371.41 575.00 C 368.63 570.90 366.74 566.28 364.02 562.16 C 362.33 558.94 357.30 560.48 355.68 557.29 C 355.44 555.15 356.39 553.10 356.86 551.05 C 351.64 544.01 345.43 537.80 340.03 530.91 C 330.47 519.77 321.29 508.25 311.45 497.38 C 308.31 498.21 305.61 500.19 302.45 500.97 C 300.02 501.46 297.53 501.48 295.06 501.64 C 288.64 519.22 282.38 536.86 276.20 554.53 C 273.90 561.32 270.42 567.81 269.49 575.00 L 267.40 575.00 C 276.19 550.21 285.14 525.47 294.01 500.71 C 291.83 499.40 289.72 497.86 287.26 497.13 C 285.23 498.46 283.59 500.28 281.93 502.03 C 268.22 516.61 254.11 530.78 240.02 544.99 C 231.78 554.23 222.75 562.70 214.30 571.74 C 214.94 572.83 215.61 573.92 216.29 575.00 L 205.89 575.00 C 210.17 572.34 214.73 569.94 218.08 566.09 C 237.23 545.58 257.43 526.11 276.65 505.68 C 279.68 502.33 283.27 499.48 285.88 495.78 C 285.33 492.96 283.87 488.64 280.28 489.19 C 275.87 489.31 271.55 490.23 267.21 490.92 C 265.23 492.43 263.59 495.21 260.99 495.36 C 257.35 494.01 255.03 490.14 250.97 489.56 C 219.09 482.76 187.32 475.50 155.53 468.26 C 133.89 463.88 112.50 458.34 90.81 454.18 C 90.00 455.05 89.18 455.92 88.34 456.78 C 100.09 489.26 111.74 521.78 123.48 554.27 C 124.83 557.92 125.61 561.90 127.88 565.14 C 130.02 567.23 133.24 567.52 136.06 568.02 C 154.25 570.11 172.35 572.86 190.53 575.00 L 174.61 575.00 C 166.77 572.61 158.55 572.36 150.50 571.17 C 143.85 570.20 137.18 569.02 130.44 569.31 C 131.72 571.30 133.08 573.27 134.73 575.00 L 133.36 575.00 C 131.34 573.25 129.09 571.78 126.40 571.39 C 125.38 572.60 124.35 573.82 123.27 575.00 L 122.36 575.00 C 124.64 571.26 126.87 566.65 124.99 562.27 C 112.36 527.18 99.55 492.15 87.18 456.97 C 85.12 457.37 83.01 457.90 81.88 459.87 C 74.24 470.29 66.95 480.98 59.31 491.41 C 57.04 494.60 54.16 497.44 52.61 501.09 C 52.27 504.76 53.17 508.39 53.60 512.03 C 55.94 527.50 57.61 543.07 60.10 558.52 C 60.98 563.98 61.57 569.48 61.97 575.00 L 60.74 575.00 C 58.59 555.11 55.29 535.38 52.87 515.54 C 52.29 511.44 51.67 507.35 51.00 503.28 C 44.63 510.97 39.28 519.43 33.27 527.40 C 22.29 543.05 10.58 558.20 0.00 574.12 L 0.00 571.19 C 16.07 549.47 31.50 527.27 47.56 505.53 C 49.37 503.07 51.12 500.19 50.40 497.01 C 49.17 488.37 47.67 479.76 47.06 471.04 C 40.38 472.13 34.48 475.57 28.25 477.99 C 24.56 479.66 20.53 480.73 17.20 483.09 C 15.07 485.48 14.37 488.75 13.30 491.70 C 9.44 504.18 3.94 516.09 0.00 528.53 L 0.00 523.53 C 5.55 510.61 9.98 497.26 14.73 484.04 C 9.65 485.57 4.65 487.43 0.00 489.99 L 0.00 488.31 C 5.07 485.87 10.39 484.02 15.57 481.86 C 19.26 471.48 23.35 461.24 26.92 450.81 C 30.19 441.27 34.31 432.02 37.04 422.29 C 33.06 419.97 29.60 416.88 26.90 413.14 C 17.88 416.29 8.99 419.82 0.00 423.07 L 0.00 421.62 C 8.79 418.25 17.79 415.42 26.38 411.56 C 25.55 406.31 27.00 401.22 27.99 396.14 C 24.93 392.71 20.87 390.41 17.28 387.61 C 11.44 383.60 6.35 378.55 0.00 375.31 L 0.00 372.82 C 4.64 376.62 9.65 379.96 14.38 383.65 C 19.44 387.48 24.28 391.62 29.67 395.00 C 33.15 392.45 39.62 391.50 39.28 386.08 C 39.64 374.37 39.35 362.63 39.92 350.92 C 40.51 343.93 40.33 336.92 40.20 329.92 C 37.42 327.91 34.52 325.72 30.95 325.56 C 20.62 324.53 10.35 322.88 0.00 322.01 L 0.00 320.61 C 10.95 322.00 21.93 323.17 32.91 324.31 C 27.23 320.56 20.47 319.19 14.29 316.53 C 9.64 314.56 4.82 313.06 0.00 311.60 L 0.00 309.66 C 9.53 313.41 19.20 316.80 28.71 320.62 C 35.40 323.79 43.50 321.53 49.05 317.08 C 57.71 310.33 66.63 303.93 75.57 297.57 C 77.80 295.97 79.77 294.05 81.66 292.06 C 54.39 287.48 27.21 282.41 0.00 277.56 L 0.00 276.36 C 23.36 280.25 46.64 284.56 69.95 288.68 C 74.07 289.39 78.13 290.55 82.32 290.74 C 84.78 290.85 86.77 289.14 88.66 287.82 C 92.90 284.53 97.23 281.36 101.53 278.16 C 99.21 274.91 97.18 271.44 94.52 268.44 C 93.24 266.73 90.92 266.79 89.01 266.54 C 67.65 265.35 46.36 263.19 25.00 262.11 C 16.67 261.61 8.36 259.92 0.00 260.72 L 0.00 258.68 C 24.06 260.78 48.19 262.14 72.27 264.13 C 78.79 264.67 85.35 264.57 91.84 265.47 C 88.32 259.09 83.77 253.39 79.59 247.47 C 68.16 231.58 56.86 215.60 45.31 199.81 C 42.18 195.94 36.51 196.92 32.27 197.98 C 21.56 200.89 10.64 202.91 0.00 206.05 L 0.00 204.70 C 5.82 202.60 11.96 201.63 17.95 200.10 C 23.72 198.62 29.78 197.94 35.09 195.04 C 23.44 193.66 11.69 193.58 0.00 192.63 L 0.00 191.44 C 11.02 191.99 22.04 192.77 33.04 193.58 C 36.40 193.91 39.23 191.80 42.05 190.32 C 44.85 193.16 47.83 195.86 51.32 197.84 C 75.91 212.19 100.34 226.80 124.88 241.22 C 128.10 242.99 131.05 245.67 134.76 246.30 C 135.97 245.69 137.12 244.96 138.27 244.26 C 134.09 231.40 128.63 219.00 124.04 206.28 C 120.88 199.39 119.21 191.87 115.60 185.20 C 111.16 184.07 106.52 184.71 101.99 184.61 C 78.66 184.56 55.33 184.80 32.00 184.84 C 21.36 185.85 10.67 185.34 0.00 185.60 L 0.00 184.42 C 9.99 184.39 19.99 184.55 29.98 184.25 C 42.59 183.88 55.23 184.66 67.83 183.67 C 83.57 183.16 99.33 183.75 115.08 183.35 C 106.34 159.82 97.10 136.47 88.28 112.97 C 86.83 108.92 85.21 104.93 83.40 101.03 C 70.09 107.32 57.17 114.41 43.87 120.73 C 29.33 128.33 14.42 135.22 0.00 143.02 L 0.00 141.55 C 10.95 135.53 22.29 130.20 33.46 124.57 C 49.89 115.95 66.78 108.22 83.05 99.33 C 80.20 91.02 76.55 83.02 73.64 74.73 C 72.69 71.87 71.14 69.27 69.37 66.85 C 54.13 78.02 39.38 89.84 24.24 101.16 C 16.23 107.54 7.85 113.47 0.00 120.05 L 0.00 118.28 C 14.59 106.40 29.91 95.44 44.67 83.78 C 52.06 78.05 59.68 72.62 66.90 66.67 C 66.72 65.10 66.53 63.52 66.35 61.94 C 49.98 60.00 33.62 58.04 17.23 56.25 C 11.50 55.64 5.78 54.66 0.00 54.66 L 0.00 52.98 C 21.00 55.45 42.03 57.74 63.02 60.21 C 65.53 60.86 67.24 58.91 68.86 57.37 C 62.70 46.62 55.92 36.24 49.65 25.55 C 44.24 17.11 39.71 8.10 33.78 0.00 Z" />
<path fill="#e84e3f" d=" M 35.56 0.00 L 111.23 0.00 C 99.78 17.60 88.57 35.35 77.36 53.10 C 76.05 56.27 72.37 55.53 69.59 55.87 C 58.12 37.33 47.24 18.41 35.56 0.00 Z" />
<path fill="#e84e3f" d=" M 113.25 0.00 L 151.11 0.00 C 153.72 4.45 155.93 9.10 158.11 13.77 C 148.07 11.23 138.11 8.38 128.22 5.31 C 123.07 4.01 117.92 2.58 113.25 0.00 Z" />
<path fill="#e84e3f" d=" M 152.78 0.00 L 203.51 0.00 C 200.09 8.06 195.16 15.34 191.24 23.15 C 184.03 21.70 177.10 19.21 169.98 17.41 C 166.86 16.50 163.59 15.92 160.75 14.30 C 157.08 10.18 155.68 4.62 152.78 0.00 Z" />
<path fill="#e84e3f" d=" M 205.84 0.00 L 280.99 0.00 C 278.26 1.76 275.54 3.58 272.58 4.96 C 258.04 11.62 243.70 18.73 229.20 25.50 C 224.45 27.60 219.72 31.74 214.20 30.08 C 207.01 28.16 199.92 25.88 192.74 23.92 C 196.67 15.72 201.12 7.76 205.84 0.00 Z" />
<path fill="#e84e3f" d=" M 285.57 0.00 L 343.40 0.00 C 361.36 11.00 379.00 22.52 396.74 33.88 C 395.95 36.69 395.38 39.62 393.99 42.22 C 390.48 43.59 386.64 43.67 382.98 44.40 C 371.97 46.58 360.83 47.93 349.83 50.14 C 336.54 52.26 323.36 55.14 309.94 56.30 C 305.23 56.84 300.73 55.08 296.31 53.74 C 285.59 50.39 274.69 47.68 263.95 44.41 C 249.67 40.10 235.16 36.54 221.01 31.84 C 228.53 26.53 237.20 23.27 245.44 19.28 C 258.76 12.73 272.28 6.61 285.57 0.00 Z" />
<path fill="#e84e3f" d=" M 346.40 0.00 L 366.08 0.00 C 370.92 4.48 375.34 9.38 379.96 14.08 C 384.42 19.09 389.44 23.61 393.31 29.12 C 386.15 26.33 380.21 21.36 373.67 17.47 C 364.60 11.61 355.35 6.03 346.40 0.00 Z" />
<path fill="#e84e3f" d=" M 368.19 0.00 L 408.17 0.00 C 408.32 9.53 408.80 19.05 408.78 28.57 C 405.38 29.45 402.11 30.83 398.65 31.40 C 396.67 30.06 395.11 28.21 393.48 26.49 C 385.24 17.48 376.68 8.77 368.19 0.00 Z" />
<path fill="#e84e3f" d=" M 409.38 0.00 L 449.88 0.00 C 447.02 2.78 444.23 5.65 441.10 8.14 C 433.43 14.41 426.12 21.10 418.73 27.68 C 416.74 29.20 414.44 31.78 411.69 30.46 C 410.38 29.37 410.54 27.54 410.34 26.02 C 409.78 17.35 409.30 8.68 409.38 0.00 Z" />
<path fill="#e84e3f" d=" M 452.39 0.00 L 535.39 0.00 C 569.20 22.53 603.29 44.65 637.16 67.09 C 635.35 71.56 633.72 76.21 630.78 80.10 C 629.60 80.30 628.43 80.28 627.26 80.02 C 604.22 75.63 581.11 71.58 558.07 67.16 C 519.03 60.44 480.16 52.76 441.12 45.96 C 434.02 44.67 426.98 43.00 419.82 42.08 C 418.52 38.78 416.88 35.57 416.17 32.07 C 418.54 28.48 422.32 26.20 425.45 23.34 C 434.46 15.60 443.40 7.76 452.39 0.00 Z" />
<path fill="#e84e3f" d=" M 537.99 0.00 L 660.08 0.00 C 660.99 7.11 662.10 14.20 663.77 21.17 C 660.69 25.26 656.63 28.53 653.70 32.73 C 648.74 43.98 643.93 55.42 637.58 65.97 C 604.62 43.63 570.98 22.29 537.99 0.00 Z" />
<path fill="#e84e3f" d=" M 661.35 0.00 L 683.69 0.00 C 677.92 7.08 671.62 13.73 664.84 19.85 C 663.41 13.28 662.39 6.64 661.35 0.00 Z" />
<path fill="#e84e3f" d=" M 686.58 0.00 L 734.02 0.00 C 725.06 5.64 714.93 8.97 705.43 13.55 C 692.44 19.08 679.71 25.27 666.56 30.43 C 666.14 27.70 664.88 24.85 665.62 22.10 C 667.75 18.81 670.84 16.29 673.48 13.42 C 677.91 9.01 682.02 4.28 686.58 0.00 Z" />
<path fill="#e84e3f" d=" M 739.33 0.00 L 933.97 0.00 C 939.42 4.29 944.73 8.78 949.82 13.50 C 948.39 17.05 947.12 20.66 946.00 24.31 C 913.28 27.19 880.48 29.07 847.76 31.97 C 799.72 35.25 751.73 39.44 703.69 42.65 C 703.28 41.91 702.46 40.44 702.05 39.70 C 710.65 35.70 719.67 32.71 728.48 29.20 C 739.72 24.76 751.04 20.53 762.23 15.97 C 765.96 14.35 769.93 13.44 773.80 12.24 C 775.63 12.02 775.55 9.84 776.22 8.53 C 775.46 8.40 773.96 8.14 773.20 8.01 C 770.75 10.50 767.95 12.71 764.60 13.85 C 744.53 21.27 724.71 29.37 704.69 36.94 C 701.02 38.43 697.63 35.21 693.97 35.32 C 691.51 36.37 689.42 38.10 686.96 39.13 C 684.68 39.18 682.46 38.61 680.25 38.18 C 675.26 37.02 669.77 36.65 665.73 33.14 C 674.89 28.09 684.69 24.32 694.19 19.96 C 709.25 13.35 724.21 6.47 739.33 0.00 Z" />
<path fill="#e84e3f" d=" M 936.07 0.00 L 948.13 0.00 C 950.37 2.70 952.70 5.53 953.68 8.96 C 953.19 10.22 952.66 11.45 952.09 12.66 C 946.31 9.00 941.52 4.08 936.07 0.00 Z" />
<path fill="#e84e3f" d=" M 950.05 0.00 L 964.24 0.00 C 964.39 1.74 964.50 3.49 964.44 5.23 C 961.87 7.15 958.65 7.78 955.66 8.70 C 953.79 5.80 952.01 2.83 950.05 0.00 Z" />
<path fill="#e84e3f" d=" M 965.81 0.00 L 1025.84 0.00 C 1019.51 4.13 1012.30 6.49 1005.41 9.46 C 997.65 12.67 990.04 16.25 982.23 19.36 C 980.35 16.18 978.61 12.76 975.65 10.44 C 972.70 8.17 969.03 7.24 965.58 6.06 C 965.64 4.04 965.72 2.02 965.81 0.00 Z" />
<path fill="#e84e3f" d=" M 1032.31 0.00 L 1081.16 0.00 C 1086.28 10.30 1090.46 21.03 1095.28 31.47 C 1092.72 33.01 1089.86 34.31 1086.81 33.72 C 1058.26 30.37 1029.67 27.31 1001.11 24.05 C 994.81 23.17 988.41 22.92 982.23 21.33 C 990.76 16.69 999.95 13.47 1008.79 9.49 C 1016.71 6.52 1024.17 2.38 1032.31 0.00 Z" />
<path fill="#e84e3f" d=" M 1082.60 0.00 L 1096.07 0.00 C 1097.16 10.31 1097.82 20.72 1097.31 31.08 C 1091.48 21.18 1088.13 10.06 1082.60 0.00 Z" />
<path fill="#e84e3f" d=" M 1097.48 0.00 L 1129.75 0.00 C 1127.83 2.65 1126.08 5.43 1123.94 7.90 C 1117.00 15.90 1110.60 24.34 1103.75 32.42 C 1102.11 31.22 1099.63 30.59 1099.12 28.38 C 1098.11 24.68 1098.50 20.79 1098.47 17.00 C 1098.59 11.31 1098.04 5.65 1097.48 0.00 Z" />
<path fill="#e84e3f" d=" M 1132.07 0.00 L 1200.00 0.00 L 1200.00 50.45 C 1169.04 47.05 1138.16 43.02 1107.17 39.97 C 1106.49 37.59 1105.82 35.21 1105.15 32.83 C 1114.01 21.80 1123.29 11.10 1132.07 0.00 Z" />
<path fill="#e84e3f" d=" M 98.42 22.46 C 102.86 15.82 106.72 8.78 111.60 2.43 C 124.47 11.86 136.93 21.82 149.58 31.53 C 155.18 35.86 161.02 39.89 166.27 44.64 C 165.33 47.30 164.64 50.03 164.10 52.80 C 146.42 54.76 128.66 55.83 110.99 57.89 C 100.57 58.69 90.19 59.96 79.75 60.51 C 78.89 59.06 77.69 57.73 77.33 56.04 C 78.03 54.29 79.05 52.68 80.06 51.09 C 86.39 41.68 92.15 31.91 98.42 22.46 Z" />
<path fill="#e84e3f" d=" M 117.34 4.36 C 121.55 4.32 125.42 6.06 129.41 7.13 C 138.66 9.48 147.73 12.44 156.95 14.91 C 160.62 15.62 161.23 19.92 162.85 22.68 C 165.75 28.68 168.91 34.55 171.99 40.46 C 170.55 41.60 168.99 42.55 167.32 43.29 C 154.07 33.40 141.04 23.21 127.91 13.14 C 124.24 10.40 120.52 7.69 117.34 4.36 Z" />
<path fill="#e84e3f" d=" M 161.91 16.56 C 171.38 19.05 180.85 21.62 190.16 24.66 C 187.44 30.10 184.35 35.34 181.37 40.63 C 178.58 40.31 175.80 40.03 173.01 39.77 C 169.19 32.10 164.74 24.66 161.91 16.56 Z" />
<path fill="#e84e3f" d=" M 982.83 23.29 C 1014.56 26.97 1046.32 30.38 1078.06 33.95 C 1082.23 34.37 1086.42 34.79 1090.55 35.57 C 1090.25 37.25 1090.06 38.97 1089.58 40.62 C 1086.42 42.92 1082.45 43.63 1078.92 45.17 C 1044.85 58.89 1010.68 72.37 976.58 86.01 C 972.41 88.36 970.19 82.67 967.23 80.69 C 967.04 67.98 967.06 55.27 967.20 42.57 C 976.15 40.82 983.06 32.46 982.83 23.29 Z" />
<path fill="#e84e3f" d=" M 657.88 30.08 C 659.71 27.77 661.85 25.72 664.27 24.03 C 664.56 26.52 664.96 29.06 664.59 31.57 C 662.48 34.13 659.86 31.16 657.88 30.08 Z" />
<path fill="#e84e3f" d=" M 182.82 41.88 C 185.24 36.00 188.62 30.60 191.75 25.10 C 199.41 26.73 206.70 29.65 214.32 31.44 C 213.33 33.54 211.15 34.44 209.15 35.29 C 201.61 38.47 194.51 42.59 187.00 45.82 C 185.61 44.50 184.22 43.19 182.82 41.88 Z" />
<path fill="#e84e3f" d=" M 740.98 41.30 C 809.33 35.88 877.72 31.18 946.06 25.52 C 947.50 29.85 948.86 34.53 952.42 37.64 C 955.94 41.08 960.93 42.05 965.61 42.76 C 965.77 55.26 965.70 67.75 965.63 80.25 C 962.78 80.97 959.45 81.12 957.39 83.48 C 955.49 85.35 955.30 88.16 954.60 90.58 C 944.12 92.15 933.49 92.28 922.98 93.61 C 911.72 94.45 900.53 96.24 889.24 96.42 C 887.92 94.42 886.66 91.94 884.03 91.55 C 880.54 90.45 877.71 93.19 875.01 94.89 C 839.93 85.28 805.04 74.99 770.01 65.17 C 748.46 59.13 726.99 52.80 705.46 46.73 C 703.87 46.40 703.05 45.36 703.02 43.60 C 715.73 44.08 728.30 41.79 740.98 41.30 Z" />
<path fill="#e84e3f" d=" M 210.22 36.01 C 212.75 34.79 215.21 33.28 218.02 32.83 C 222.10 33.19 225.89 34.95 229.82 35.98 C 254.48 42.92 279.05 50.16 303.71 57.08 C 307.42 58.03 310.34 60.59 313.18 63.01 C 317.56 79.24 323.16 95.12 327.83 111.27 C 312.58 125.74 296.48 139.29 281.16 153.68 C 278.82 152.40 276.57 150.86 273.98 150.15 C 271.12 149.77 268.29 150.82 265.42 150.61 C 256.58 140.75 247.59 130.96 239.11 120.77 C 221.13 100.74 203.48 80.41 185.67 60.22 C 187.81 56.28 189.18 51.83 187.57 47.42 C 194.81 43.04 202.71 39.88 210.22 36.01 Z" />
<path fill="#e84e3f" d=" M 654.29 36.79 C 658.41 38.91 662.25 33.94 666.23 36.74 C 667.69 46.72 669.83 56.60 670.85 66.63 C 664.85 68.65 659.67 72.40 655.67 77.28 C 649.95 74.02 644.27 70.59 639.16 66.43 C 644.53 56.72 648.47 46.25 654.29 36.79 Z" />
<path fill="#e84e3f" d=" M 667.51 37.27 C 673.82 38.07 680.14 39.13 686.30 40.69 C 688.02 43.87 688.94 47.69 690.69 50.99 C 689.07 56.37 686.45 61.41 684.70 66.75 C 680.42 66.55 676.15 66.37 671.87 66.22 C 671.31 56.47 669.32 46.86 667.51 37.27 Z" />
<path fill="#e84e3f" d=" M 1099.83 48.15 C 1102.42 46.00 1104.87 43.70 1107.20 41.28 C 1117.17 41.89 1127.03 43.53 1136.96 44.56 C 1158.00 46.69 1178.95 49.69 1200.00 51.77 L 1200.00 134.89 C 1180.18 149.70 1160.63 164.88 1140.96 179.90 C 1138.38 178.86 1135.81 177.82 1133.25 176.77 C 1129.21 161.69 1125.47 146.52 1121.27 131.49 C 1114.41 103.63 1106.56 76.03 1099.83 48.15 Z" />
<path fill="#e84e3f" d=" M 974.04 88.47 C 1012.68 73.12 1051.29 57.63 1089.96 42.31 C 1092.35 44.50 1095.15 46.15 1097.70 48.13 C 1097.46 51.82 1096.09 55.31 1095.20 58.86 C 1082.04 112.73 1068.51 166.49 1055.44 220.39 C 1049.75 220.04 1044.10 220.93 1038.84 223.14 C 1034.42 216.32 1031.05 208.88 1026.81 201.95 C 1010.06 172.10 993.53 142.12 976.76 112.29 C 973.99 107.37 970.90 102.60 968.95 97.29 C 971.64 94.97 972.62 91.58 974.04 88.47 Z" />
<path fill="#e84e3f" d=" M 374.06 47.28 C 381.03 46.44 387.85 44.11 394.92 44.25 C 395.84 45.64 396.43 47.21 397.09 48.73 C 379.56 64.79 361.98 80.78 344.15 96.50 C 335.25 85.50 326.13 74.67 317.06 63.81 C 316.04 62.34 314.48 60.89 314.59 58.96 C 315.16 57.53 316.60 57.10 317.98 56.88 C 336.69 53.78 355.37 50.50 374.06 47.28 Z" />
<path fill="#e84e3f" d=" M 419.03 44.83 C 426.92 47.64 434.38 51.49 442.11 54.67 C 460.92 63.34 480.26 70.82 498.83 79.96 C 498.78 81.49 498.73 83.02 498.69 84.55 C 484.45 96.05 469.83 107.08 455.58 118.57 C 449.82 122.61 444.78 127.61 438.78 131.32 C 431.57 111.47 425.27 91.30 418.27 71.38 C 416.45 64.90 413.43 58.80 412.10 52.20 C 414.74 50.07 416.99 47.53 419.03 44.83 Z" />
<path fill="#e84e3f" d=" M 424.49 44.70 C 428.45 44.70 432.32 45.53 436.17 46.36 C 480.29 54.25 524.30 62.74 568.47 70.39 C 588.94 74.35 609.43 78.23 629.98 81.73 C 628.61 86.07 626.30 90.00 624.36 94.10 C 619.55 103.76 615.10 113.59 610.06 123.13 C 607.78 125.83 603.45 126.49 600.27 125.06 C 581.38 116.82 562.41 108.73 543.41 100.76 C 540.87 99.76 539.40 97.35 537.40 95.63 C 534.31 95.27 531.01 95.79 528.23 94.06 C 521.68 90.63 514.95 87.56 508.30 84.34 C 508.37 82.96 508.45 81.58 508.54 80.20 C 507.45 79.24 506.39 78.23 505.20 77.41 C 503.07 76.97 500.93 77.80 498.85 78.16 C 487.02 73.16 475.46 67.54 463.55 62.73 C 454.00 58.11 444.04 54.41 434.48 49.81 C 431.06 48.30 427.30 47.32 424.49 44.70 Z" />
<path fill="#e84e3f" d=" M 692.70 50.73 C 696.31 51.01 699.76 50.04 702.19 47.23 C 718.55 51.82 734.95 56.30 751.21 61.26 C 791.61 72.28 831.71 84.37 872.09 95.47 C 873.70 95.71 874.73 96.94 875.71 98.14 C 872.46 98.45 869.19 98.45 865.95 98.08 C 855.32 96.91 844.58 97.90 833.95 96.78 C 822.33 96.03 810.67 96.63 799.08 95.63 C 788.58 95.41 778.11 94.50 767.61 94.55 C 762.07 94.40 756.51 94.61 751.00 93.99 C 743.02 93.06 734.96 94.06 727.00 92.99 C 718.82 92.04 710.49 93.03 702.38 92.04 C 701.53 85.31 699.62 78.35 694.48 73.58 C 692.06 70.99 688.36 69.89 686.21 67.10 C 687.80 61.45 690.29 56.08 692.70 50.73 Z" />
<path fill="#e84e3f" d=" M 345.17 97.84 C 362.53 81.67 380.31 65.97 397.87 50.03 C 400.52 51.20 403.17 52.37 405.83 53.54 C 403.71 72.10 400.53 90.54 398.20 109.08 C 396.17 120.33 395.28 131.75 393.15 142.98 C 392.55 146.32 392.43 149.72 392.21 153.10 C 388.45 151.18 386.55 147.28 383.84 144.25 C 370.73 128.97 358.31 113.10 345.17 97.84 Z" />
<path fill="#e84e3f" d=" M 407.09 54.97 C 406.90 52.94 409.11 53.43 410.41 53.09 C 413.94 61.72 416.48 70.71 419.63 79.49 C 425.80 97.05 431.31 114.85 437.75 132.31 C 426.53 141.63 414.76 150.26 403.46 159.47 C 399.41 163.05 393.63 158.70 393.42 154.04 C 393.16 148.25 394.63 142.58 395.46 136.89 C 396.43 130.30 397.25 123.69 398.31 117.11 C 400.37 104.15 401.52 91.07 403.96 78.17 C 404.81 70.41 406.04 62.70 407.09 54.97 Z" />
<path fill="#e84e3f" d=" M 1098.34 52.29 C 1101.38 56.64 1101.77 62.09 1103.19 67.07 C 1105.24 76.42 1108.26 85.51 1110.51 94.80 C 1117.56 122.23 1125.04 149.55 1131.86 177.03 C 1129.57 178.59 1126.89 179.91 1125.48 182.40 C 1123.72 185.41 1125.30 188.91 1125.69 192.08 C 1107.36 204.37 1089.45 217.27 1071.17 229.62 C 1067.23 225.56 1062.34 222.65 1057.01 220.81 C 1058.37 212.13 1060.95 203.71 1063.00 195.18 C 1074.69 147.52 1086.62 99.93 1098.34 52.29 Z" />
<path fill="#e84e3f" d=" M 162.60 54.29 C 164.41 54.10 165.11 56.15 166.28 57.11 C 159.56 61.92 151.72 64.75 144.55 68.78 C 128.96 76.43 113.55 84.44 97.94 92.06 C 93.36 94.37 88.93 97.04 84.02 98.63 C 80.79 88.89 76.85 79.41 73.05 69.88 C 76.48 68.00 79.12 65.08 80.87 61.60 C 90.29 61.71 99.57 59.85 108.94 59.25 C 123.60 57.76 138.30 56.71 152.96 55.19 C 156.16 54.83 159.36 54.18 162.60 54.29 Z" />
<path fill="#e84e3f" d=" M 0.00 54.66 C 5.78 54.66 11.50 55.64 17.23 56.25 C 33.62 58.04 49.98 60.00 66.35 61.94 C 66.53 63.52 66.72 65.10 66.90 66.67 C 59.68 72.62 52.06 78.05 44.67 83.78 C 29.91 95.44 14.59 106.40 0.00 118.28 L 0.00 54.66 Z" />
<path fill="#e84e3f" d=" M 84.98 100.17 C 111.95 86.46 139.02 72.96 166.07 59.42 C 168.68 61.00 171.28 62.58 173.88 64.17 C 167.52 103.73 160.17 143.16 153.60 182.67 C 150.91 183.86 147.84 183.30 144.98 183.41 C 135.65 183.14 126.30 183.76 117.00 183.15 C 114.45 179.51 113.61 175.01 111.93 170.96 C 105.03 153.06 98.08 135.18 91.36 117.21 C 88.99 111.62 86.88 105.93 84.98 100.17 Z" />
<path fill="#e84e3f" d=" M 179.17 63.86 C 180.88 62.91 182.58 61.96 184.28 61.00 C 190.00 66.58 194.86 72.94 200.23 78.85 C 221.86 103.15 243.03 127.85 264.75 152.08 C 263.94 153.03 263.11 153.96 262.24 154.86 C 247.62 147.13 232.67 140.02 218.08 132.23 C 211.94 128.93 205.46 126.30 199.40 122.84 C 196.81 121.61 196.56 118.29 194.39 116.63 C 193.20 115.67 191.90 114.87 190.63 114.03 C 188.51 104.00 185.91 94.08 183.81 84.04 C 182.35 77.29 180.19 70.70 179.17 63.86 Z" />
<path fill="#e84e3f" d=" M 175.80 63.29 C 178.72 64.75 178.59 68.30 179.36 71.03 C 182.47 84.79 185.70 98.53 189.03 112.24 C 190.21 115.61 185.89 117.67 185.87 120.95 C 186.03 122.96 187.15 125.22 189.32 125.60 C 192.15 126.55 194.68 124.58 197.09 123.43 C 206.36 127.30 214.86 132.73 224.05 136.77 C 236.48 143.31 249.12 149.44 261.58 155.90 C 261.48 158.41 261.40 160.91 261.34 163.42 C 237.23 168.47 213.09 173.47 188.88 178.03 C 177.66 180.22 166.48 183.60 154.94 183.32 C 156.42 170.51 159.50 157.96 161.28 145.19 C 164.00 130.83 166.35 116.41 168.76 102.00 C 171.42 89.15 172.84 76.07 175.80 63.29 Z" />
<path fill="#e84e3f" d=" M 315.23 64.24 C 320.65 69.40 324.88 75.63 329.84 81.20 C 334.32 86.74 339.47 91.80 343.10 97.98 C 338.46 101.60 334.42 105.92 329.87 109.64 C 327.98 109.01 327.89 106.85 327.29 105.26 C 324.94 96.48 321.83 87.93 319.43 79.17 C 318.01 74.20 315.85 69.42 315.23 64.24 Z" />
<path fill="#e84e3f" d=" M 24.24 101.16 C 39.38 89.84 54.13 78.02 69.37 66.85 C 71.14 69.27 72.69 71.87 73.64 74.73 C 76.55 83.02 80.20 91.02 83.05 99.33 C 66.78 108.22 49.89 115.95 33.46 124.57 C 22.29 130.20 10.95 135.53 0.00 141.55 L 0.00 120.05 C 7.85 113.47 16.23 107.54 24.24 101.16 Z" />
<path fill="#e84e3f" d=" M 633.19 81.30 C 633.53 76.39 636.43 72.30 638.78 68.16 C 644.21 71.70 649.70 75.15 654.99 78.90 C 653.73 80.83 653.27 85.10 650.08 84.17 C 644.44 83.27 638.86 82.01 633.19 81.30 Z" />
<path fill="#e84e3f" d=" M 631.80 82.20 C 638.51 82.87 645.00 84.72 651.64 85.83 C 651.74 90.27 651.39 94.87 652.89 99.14 C 654.25 103.29 657.00 106.77 659.67 110.15 C 656.62 114.88 653.16 119.32 650.02 123.98 C 648.90 125.37 649.02 127.21 648.77 128.87 C 652.28 122.67 656.63 117.01 660.74 111.21 C 664.38 113.17 668.12 114.95 671.92 116.60 C 669.93 125.45 669.03 134.50 667.18 143.38 C 664.78 144.31 661.85 145.04 660.68 147.60 C 659.59 150.43 660.05 154.38 663.10 155.79 C 664.83 157.14 667.82 157.46 668.28 159.97 C 672.06 173.02 675.07 186.27 679.08 199.24 C 679.74 201.78 680.68 204.34 680.61 207.00 C 679.66 209.86 678.17 212.50 677.04 215.28 C 651.62 226.69 626.30 238.33 600.90 249.77 C 595.28 242.46 589.88 234.99 584.05 227.85 C 583.29 226.56 581.50 225.21 582.48 223.60 C 583.93 220.51 586.18 217.90 588.11 215.11 C 603.38 193.11 618.81 171.22 634.05 149.20 C 638.95 142.61 643.16 135.52 648.50 129.26 C 647.96 128.66 647.42 128.06 646.89 127.47 C 646.21 128.85 645.61 130.27 644.80 131.57 C 623.50 162.12 602.12 192.61 580.91 223.23 C 574.43 215.47 568.37 207.36 562.24 199.33 C 562.47 197.27 563.56 195.13 562.97 193.07 C 561.31 190.97 558.30 190.30 556.97 187.90 C 541.57 157.56 526.42 127.09 510.96 96.79 C 509.08 93.01 507.11 89.27 505.67 85.30 C 509.99 85.87 513.59 88.46 517.48 90.20 C 521.54 92.21 525.74 93.93 529.74 96.05 C 531.95 97.13 532.55 99.75 533.68 101.74 C 536.95 101.51 540.49 100.44 543.55 102.17 C 560.78 109.75 578.22 116.85 595.49 124.36 C 599.51 125.84 603.75 127.61 605.70 131.73 C 607.26 131.68 609.51 132.26 610.30 130.43 C 610.86 127.74 610.74 124.86 612.06 122.36 C 618.55 108.93 625.10 95.53 631.80 82.20 Z" />
<path fill="#e84e3f" d=" M 498.00 86.88 C 500.57 85.06 504.77 86.35 505.87 89.34 C 522.63 123.37 540.23 156.99 556.90 191.06 C 555.96 192.16 555.03 193.26 554.11 194.37 C 524.02 197.05 493.92 199.62 463.85 202.41 C 462.90 201.79 462.27 200.94 461.98 199.83 C 456.05 182.96 450.57 165.94 444.68 149.05 C 442.86 143.91 441.36 138.64 439.07 133.68 C 441.74 130.77 445.00 128.54 448.11 126.14 C 464.72 113.03 481.44 100.04 498.00 86.88 Z" />
<path fill="#e84e3f" d=" M 890.02 97.67 C 911.78 96.53 933.42 93.40 955.20 92.33 C 955.63 93.04 956.50 94.46 956.93 95.17 C 931.46 115.69 905.12 135.10 879.50 155.43 C 871.73 160.91 864.77 167.47 856.79 172.64 C 855.43 171.70 855.15 170.51 855.93 169.06 C 862.31 151.78 868.64 134.48 874.84 117.13 C 876.28 113.52 877.34 109.73 879.24 106.33 C 881.93 105.25 885.38 105.85 887.56 103.61 C 888.72 101.80 889.28 99.68 890.02 97.67 Z" />
<path fill="#e84e3f" d=" M 701.17 93.71 C 715.10 93.49 729.00 94.77 742.93 94.78 C 754.92 95.74 766.96 95.30 778.95 96.17 C 785.62 96.57 792.32 96.21 799.00 96.76 C 813.61 98.28 828.38 96.64 842.96 98.53 C 853.03 98.18 863.03 99.38 873.09 99.52 C 875.77 99.65 876.65 102.91 877.61 104.94 C 877.20 107.97 875.76 110.71 874.74 113.55 C 869.63 128.27 864.12 142.85 858.76 157.49 C 856.59 163.25 855.70 170.18 850.11 173.82 C 837.10 163.82 824.20 153.69 811.22 143.65 C 812.06 140.68 813.36 137.53 812.48 134.41 C 811.00 130.64 806.79 127.86 802.71 128.51 C 799.64 129.15 797.40 131.54 795.06 133.43 C 765.00 121.41 734.84 109.64 704.74 97.71 C 702.75 97.20 701.73 95.58 701.17 93.71 Z" />
<path fill="#e84e3f" d=" M 957.49 97.33 C 960.49 97.64 963.43 98.45 966.44 98.81 C 977.83 135.83 988.73 173.01 1000.27 209.99 C 1001.63 213.19 1001.18 216.67 1000.59 219.98 C 1006.15 220.28 1010.61 223.78 1015.17 226.58 C 1019.38 229.32 1023.86 231.64 1027.96 234.57 C 1026.27 238.82 1025.36 243.33 1025.43 247.90 C 1005.29 249.89 985.09 251.09 964.97 253.24 C 925.30 256.48 885.63 259.72 846.00 263.29 C 844.65 262.60 844.14 261.52 844.46 260.05 C 847.32 233.73 850.10 207.38 853.00 181.08 C 854.55 179.88 856.34 179.03 857.90 177.83 C 858.43 176.30 858.51 174.66 858.80 173.07 C 874.72 160.92 890.50 148.60 906.25 136.25 C 920.94 125.28 935.35 113.94 949.78 102.62 C 952.28 100.78 954.61 98.59 957.49 97.33 Z" />
<path fill="#e84e3f" d=" M 691.65 111.60 C 696.34 108.22 699.13 103.06 701.64 98.01 C 729.93 109.14 758.19 120.31 786.51 131.36 C 789.30 132.49 792.37 133.21 794.73 135.17 C 795.26 137.15 795.41 139.21 795.68 141.25 C 761.12 163.60 726.05 185.18 691.52 207.59 C 688.80 209.51 685.55 207.63 682.69 207.14 C 679.40 197.93 677.53 188.29 674.66 178.95 C 672.91 171.93 670.57 165.04 669.29 157.92 C 670.32 155.13 673.41 153.16 673.28 149.97 C 672.72 147.12 670.32 145.23 668.51 143.17 C 670.43 134.47 671.61 125.63 672.63 116.78 C 679.22 116.55 686.32 115.91 691.65 111.60 Z" />
<path fill="#e84e3f" d=" M 329.44 112.67 C 333.81 107.50 338.98 103.10 344.12 98.73 C 350.44 105.84 356.54 113.15 362.41 120.64 C 371.36 131.05 380.14 141.61 388.80 152.27 C 390.02 153.94 391.83 155.69 391.20 157.97 C 389.38 171.69 387.24 185.36 385.33 199.07 C 385.34 201.50 382.62 202.22 380.86 203.18 C 378.84 204.42 376.65 203.07 374.71 202.39 C 363.38 197.48 352.10 192.44 340.72 187.66 C 338.17 186.72 335.77 185.43 333.59 183.81 C 339.67 182.76 345.79 183.86 351.56 185.83 C 352.67 184.74 353.78 183.65 354.89 182.55 C 353.61 182.27 352.32 181.99 351.04 181.71 C 343.50 158.81 337.04 135.55 329.44 112.67 Z" />
<path fill="#e84e3f" d=" M 43.87 120.73 C 57.17 114.41 70.09 107.32 83.40 101.03 C 85.21 104.93 86.83 108.92 88.28 112.97 C 97.10 136.47 106.34 159.82 115.08 183.35 C 99.33 183.75 83.57 183.16 67.83 183.67 C 55.23 184.66 42.59 183.88 29.98 184.25 C 19.99 184.55 9.99 184.39 0.00 184.42 L 0.00 143.02 C 14.42 135.22 29.33 128.33 43.87 120.73 Z" />
<path fill="#e84e3f" d=" M 970.27 104.86 C 971.89 106.66 973.37 108.61 974.49 110.78 C 983.40 127.40 992.92 143.68 1001.92 160.25 C 1007.89 171.25 1014.42 181.94 1020.20 193.05 C 1025.79 203.41 1032.04 213.41 1037.31 223.95 C 1034.29 226.76 1031.43 229.72 1028.84 232.93 C 1023.30 229.98 1018.00 226.61 1012.58 223.47 C 1009.96 221.80 1006.95 220.47 1005.09 217.89 C 1002.70 214.70 1001.77 210.75 1000.61 207.02 C 991.38 177.43 982.76 147.66 973.63 118.03 C 972.31 113.70 970.79 109.39 970.27 104.86 Z" />
<path fill="#e84e3f" d=" M 323.36 117.33 C 324.89 115.83 326.69 114.65 328.58 113.66 C 332.50 127.01 336.98 140.19 340.86 153.56 C 343.90 162.92 346.32 172.49 349.96 181.66 C 346.21 182.68 342.36 182.08 338.77 180.77 C 320.10 174.68 300.66 170.69 282.73 162.51 C 282.44 160.06 281.97 157.60 282.12 155.13 C 283.04 153.47 284.50 152.20 285.90 150.94 C 298.73 140.13 310.83 128.49 323.36 117.33 Z" />
<path fill="#e84e3f" d=" M 405.05 159.89 C 416.16 151.46 426.71 142.30 438.13 134.29 C 446.22 157.23 453.95 180.30 461.83 203.31 C 446.97 205.35 431.92 203.93 417.00 205.12 C 408.65 205.54 400.29 205.62 391.93 205.74 C 389.97 203.44 385.80 201.60 386.73 198.03 C 389.08 184.63 390.17 171.02 392.78 157.68 C 396.47 159.71 395.34 164.03 395.56 167.50 C 397.27 167.58 398.99 167.68 400.71 167.54 C 402.01 164.91 402.26 161.51 405.05 159.89 Z" />
<path fill="#e84e3f" d=" M 1157.25 169.11 C 1171.52 158.24 1185.72 147.28 1200.00 136.42 L 1200.00 152.00 C 1190.96 157.19 1181.41 161.46 1172.20 166.36 C 1163.31 170.40 1154.96 175.66 1145.71 178.88 C 1149.08 175.09 1153.17 172.08 1157.25 169.11 Z" />
<path fill="#e84e3f" d=" M 789.83 146.69 C 792.28 145.32 794.65 142.67 797.73 143.39 C 799.42 144.52 798.66 146.21 797.89 147.65 C 774.62 188.71 751.42 229.81 728.15 270.87 C 725.25 275.28 723.31 280.28 720.11 284.49 C 716.27 284.43 712.48 283.64 708.65 283.50 C 701.03 262.38 694.02 241.06 686.50 219.90 C 688.82 217.09 689.75 213.62 690.36 210.10 C 696.82 205.16 704.08 201.26 710.92 196.83 C 737.20 180.08 763.59 163.51 789.83 146.69 Z" />
<path fill="#e84e3f" d=" M 800.10 146.40 C 803.41 146.48 806.64 145.71 809.88 145.19 C 812.18 145.83 813.97 147.60 815.89 148.96 C 826.30 157.27 836.99 165.21 847.42 173.50 C 850.24 175.72 851.95 179.35 851.53 182.96 C 849.18 204.98 846.68 226.98 844.33 249.00 C 843.60 253.86 844.53 259.62 840.31 263.14 C 840.66 264.39 841.02 265.65 841.40 266.91 C 839.38 270.41 837.85 274.18 835.77 277.64 C 834.05 280.15 830.64 280.05 827.96 280.44 C 819.53 281.10 811.28 282.97 802.93 284.19 C 778.27 287.76 753.71 292.10 729.01 295.41 C 727.19 291.53 724.44 288.22 721.43 285.22 C 738.69 255.83 754.85 225.79 772.02 196.33 C 781.24 179.61 790.86 163.11 800.10 146.40 Z" />
<path fill="#e84e3f" d=" M 1179.88 163.83 C 1186.45 160.15 1193.58 157.56 1200.00 153.60 L 1200.00 184.36 C 1180.52 184.14 1161.00 184.97 1141.54 184.11 C 1143.93 182.15 1146.52 180.43 1149.34 179.13 C 1159.62 174.23 1169.74 169.02 1179.88 163.83 Z" />
<path fill="#e84e3f" d=" M 243.01 168.58 C 249.16 167.59 255.18 165.81 261.42 165.39 C 255.75 171.24 248.29 174.90 242.04 180.07 C 238.75 183.00 234.24 183.52 230.02 183.43 C 212.48 183.28 194.93 183.59 177.40 183.13 C 180.76 179.91 185.80 180.47 190.01 179.35 C 207.64 175.56 225.39 172.43 243.01 168.58 Z" />
<path fill="#e84e3f" d=" M 274.14 171.62 C 277.26 170.13 280.06 168.03 282.21 165.30 C 293.05 168.06 303.12 173.04 313.44 177.23 C 316.82 178.59 320.18 180.04 323.27 182.00 C 316.85 182.70 310.40 182.17 303.97 182.30 C 294.54 182.23 285.11 182.65 275.69 182.45 C 274.77 178.91 274.20 175.28 274.14 171.62 Z" />
<path fill="#e84e3f" d=" M 255.26 172.09 C 258.04 169.94 260.89 167.77 264.29 166.70 C 262.77 170.14 259.63 172.36 257.27 175.16 C 255.08 177.80 252.75 180.30 250.22 182.62 C 247.33 182.73 244.42 182.71 241.55 182.34 C 245.87 178.60 250.76 175.60 255.26 172.09 Z" />
<path fill="#e84e3f" d=" M 265.85 170.16 C 268.03 170.66 270.22 171.17 272.41 171.68 C 273.06 175.21 273.62 178.76 274.04 182.33 C 268.73 182.63 263.42 182.61 258.11 182.32 C 260.38 178.07 263.45 174.33 265.85 170.16 Z" />
<path fill="#e84e3f" d=" M 252.84 182.62 C 255.58 179.53 257.67 175.15 261.92 173.97 C 259.41 177.18 257.85 183.15 252.84 182.62 Z" />
<path fill="#e84e3f" d=" M 314.75 175.43 C 317.71 175.75 320.61 176.43 323.41 177.43 C 327.82 178.97 332.50 179.73 336.67 181.91 C 328.77 183.66 321.01 179.93 314.75 175.43 Z" />
<path fill="#e84e3f" d=" M 178.00 184.48 C 196.82 184.77 215.66 183.83 234.48 184.57 C 232.92 186.35 231.27 188.08 229.29 189.39 C 204.42 207.14 179.78 225.18 154.95 242.99 C 153.03 244.26 151.32 246.12 149.01 246.63 C 147.31 245.65 145.80 244.41 144.25 243.22 C 147.06 228.16 149.29 213.00 152.26 197.98 C 153.12 194.27 152.63 189.95 154.73 186.70 C 162.17 184.03 170.22 184.39 178.00 184.48 Z" />
<path fill="#e84e3f" d=" M 238.12 184.88 C 241.54 184.00 245.12 184.19 248.62 184.01 C 237.45 196.99 225.24 209.02 213.77 221.74 C 203.18 233.10 192.26 244.16 182.04 255.86 C 180.75 257.14 179.22 258.97 177.19 258.04 C 168.29 255.72 159.11 254.72 150.22 252.32 C 150.07 251.44 149.76 249.68 149.61 248.80 C 157.21 242.55 165.60 237.36 173.34 231.28 C 192.69 217.30 212.14 203.46 231.39 189.34 C 233.57 187.76 235.64 185.97 238.12 184.88 Z" />
<path fill="#e84e3f" d=" M 250.08 185.03 C 251.39 183.48 253.41 183.63 255.14 184.29 C 238.39 209.80 221.61 235.30 205.04 260.93 C 203.70 263.76 200.38 262.46 198.01 262.20 C 192.53 261.09 186.99 260.18 181.70 258.33 C 187.54 250.99 194.56 244.74 200.70 237.68 C 217.18 220.14 233.53 202.48 250.08 185.03 Z" />
<path fill="#e84e3f" d=" M 254.42 187.74 C 255.68 186.23 256.61 183.69 258.96 183.85 C 263.98 183.72 269.09 183.01 274.06 183.94 C 275.07 186.80 275.36 189.84 275.79 192.83 C 280.12 220.27 284.92 247.64 288.79 275.14 C 287.20 276.52 285.62 277.91 284.05 279.29 C 265.68 275.81 247.38 271.96 229.04 268.34 C 221.19 266.66 213.25 265.37 205.49 263.31 C 209.28 255.81 214.52 249.20 218.89 242.05 C 230.77 223.97 242.54 205.82 254.42 187.74 Z" />
<path fill="#e84e3f" d=" M 276.07 183.97 C 291.69 182.98 307.39 183.88 323.04 183.49 C 328.09 183.18 332.66 185.56 337.16 187.49 C 348.95 192.82 360.91 197.79 372.79 202.92 C 374.89 203.94 377.47 204.38 379.11 206.13 C 379.44 207.75 379.52 209.41 379.66 211.05 C 369.06 218.57 358.82 226.59 348.47 234.45 C 333.47 245.46 318.80 256.91 303.83 267.94 C 300.28 270.59 297.00 273.67 293.08 275.75 C 292.50 275.70 291.36 275.60 290.79 275.55 C 289.57 272.82 289.56 269.76 289.05 266.86 C 286.34 250.60 283.91 234.28 281.25 218.00 C 279.34 206.69 277.27 195.39 276.07 183.97 Z" />
<path fill="#e84e3f" d=" M 0.00 185.60 C 10.67 185.34 21.36 185.85 32.00 184.84 C 55.33 184.80 78.66 184.56 101.99 184.61 C 106.52 184.71 111.16 184.07 115.60 185.20 C 119.21 191.87 120.88 199.39 124.04 206.28 C 128.63 219.00 134.09 231.40 138.27 244.26 C 137.12 244.96 135.97 245.69 134.76 246.30 C 131.05 245.67 128.10 242.99 124.88 241.22 C 100.34 226.80 75.91 212.19 51.32 197.84 C 47.83 195.86 44.85 193.16 42.05 190.32 C 39.23 191.80 36.40 193.91 33.04 193.58 C 22.04 192.77 11.02 191.99 0.00 191.44 L 0.00 185.60 Z" />
<path fill="#e84e3f" d=" M 117.45 184.74 C 128.81 184.64 140.20 184.49 151.55 184.93 C 146.14 188.07 139.46 188.11 133.35 188.54 C 133.37 189.09 133.42 190.20 133.45 190.75 C 139.87 189.72 146.12 187.75 152.63 187.22 C 149.70 205.19 146.34 223.10 143.37 241.07 C 143.41 243.34 139.76 244.01 139.10 241.81 C 133.28 227.38 128.19 212.66 122.31 198.25 C 120.56 193.79 118.66 189.38 117.45 184.74 Z" />
<path fill="#e84e3f" d=" M 1143.69 186.69 C 1162.40 184.90 1181.23 185.82 1200.00 185.59 L 1200.00 189.25 C 1194.51 189.87 1189.00 189.27 1183.54 188.80 C 1176.15 188.17 1168.72 188.57 1161.36 187.66 C 1155.49 186.95 1149.58 186.83 1143.69 186.69 Z" />
<path fill="#e84e3f" d=" M 1137.39 194.50 C 1140.15 192.83 1141.85 189.95 1143.80 187.46 C 1162.53 188.69 1181.25 190.19 1200.00 191.25 L 1200.00 209.29 C 1194.31 211.28 1188.38 212.40 1182.55 213.80 C 1158.58 219.55 1134.69 225.59 1110.66 231.02 C 1111.74 228.44 1112.85 225.86 1114.29 223.45 C 1119.81 214.23 1124.75 204.65 1130.48 195.55 C 1132.77 195.29 1135.22 195.45 1137.39 194.50 Z" />
<path fill="#e84e3f" d=" M 0.00 192.63 C 11.69 193.58 23.44 193.66 35.09 195.04 C 29.78 197.94 23.72 198.62 17.95 200.10 C 11.96 201.63 5.82 202.60 0.00 204.70 L 0.00 192.63 Z" />
<path fill="#e84e3f" d=" M 1104.38 208.25 C 1112.34 203.23 1119.54 197.04 1127.85 192.57 C 1128.22 193.20 1128.96 194.44 1129.33 195.07 C 1123.37 204.32 1118.28 214.08 1112.75 223.59 C 1111.11 226.28 1109.81 229.24 1107.68 231.59 C 1102.67 233.44 1097.31 234.03 1092.21 235.56 C 1086.94 236.74 1081.75 238.89 1076.29 238.77 C 1074.51 236.33 1073.33 233.54 1071.95 230.88 C 1082.64 223.18 1093.69 215.97 1104.38 208.25 Z" />
<path fill="#e84e3f" d=" M 466.56 203.70 C 495.69 200.22 525.05 198.83 554.21 195.61 C 555.76 196.97 557.30 198.34 558.86 199.71 C 558.27 207.57 556.30 215.21 555.20 223.00 C 553.72 233.68 551.55 244.26 550.02 254.95 C 546.35 255.32 542.54 255.32 539.09 256.79 C 536.24 258.12 533.74 260.06 531.15 261.82 C 515.57 248.11 499.57 234.88 483.76 221.44 C 477.92 216.74 472.46 211.60 466.46 207.11 C 466.49 206.26 466.54 204.55 466.56 203.70 Z" />
<path fill="#e84e3f" d=" M 32.27 197.98 C 36.51 196.92 42.18 195.94 45.31 199.81 C 56.86 215.60 68.16 231.58 79.59 247.47 C 83.77 253.39 88.32 259.09 91.84 265.47 C 85.35 264.57 78.79 264.67 72.27 264.13 C 48.19 262.14 24.06 260.78 0.00 258.68 L 0.00 206.05 C 10.64 202.91 21.56 200.89 32.27 197.98 Z" />
<path fill="#e84e3f" d=" M 45.08 196.18 C 48.24 197.41 51.17 199.13 54.00 200.99 C 80.53 216.56 106.95 232.35 133.47 247.95 C 133.46 250.33 133.45 252.72 133.44 255.11 C 129.36 257.79 125.43 260.67 121.55 263.61 C 119.04 265.40 116.33 267.68 113.01 267.18 C 106.69 266.71 100.36 266.31 94.08 265.38 C 80.01 245.90 66.03 226.36 52.03 206.83 C 49.48 203.44 46.86 200.06 45.08 196.18 Z" />
<path fill="#e84e3f" d=" M 551.62 254.05 C 554.11 235.88 557.60 217.86 560.45 199.75 C 566.83 206.44 571.77 214.30 577.59 221.44 C 578.27 222.73 580.28 224.32 579.01 225.82 C 571.81 236.33 564.49 246.76 557.13 257.17 C 555.34 256.28 551.46 256.77 551.62 254.05 Z" />
<path fill="#e84e3f" d=" M 426.95 206.08 C 437.29 205.24 447.68 205.60 458.03 205.06 C 461.24 204.75 463.78 207.09 466.33 208.67 C 472.82 213.45 478.59 219.11 484.82 224.22 C 498.18 235.15 511.12 246.56 524.44 257.53 C 526.56 259.31 528.57 261.23 530.56 263.17 C 529.51 264.37 528.48 265.58 527.44 266.79 C 515.49 260.66 502.77 256.21 490.48 250.82 C 458.68 237.58 426.93 224.23 395.11 211.05 C 393.43 210.28 391.98 209.10 390.54 207.97 C 395.43 205.87 400.82 206.67 405.98 206.49 C 412.97 206.32 419.97 206.55 426.95 206.08 Z" />
<path fill="#e84e3f" d=" M 386.21 213.53 C 388.46 212.05 391.13 210.27 393.83 211.86 C 438.41 230.52 482.94 249.27 527.57 267.82 C 526.57 271.81 526.22 275.92 526.25 280.03 C 513.39 283.53 500.46 286.74 487.51 289.90 C 460.73 296.93 433.91 303.89 407.03 310.54 C 404.63 308.43 401.84 306.85 398.80 305.88 C 396.66 294.87 395.75 283.66 394.22 272.56 C 391.54 252.89 389.02 233.19 386.21 213.53 Z" />
<path fill="#e84e3f" d=" M 1168.76 218.54 C 1179.16 215.91 1189.77 214.01 1200.00 210.74 L 1200.00 257.19 C 1166.53 254.66 1133.01 252.58 1099.58 249.60 C 1102.67 244.12 1104.89 237.91 1109.33 233.34 C 1116.43 230.20 1124.41 229.63 1131.86 227.52 C 1144.10 224.26 1156.52 221.76 1168.76 218.54 Z" />
<path fill="#e84e3f" d=" M 378.47 213.44 C 380.47 211.28 383.08 212.84 385.30 213.66 C 386.27 227.55 389.15 241.22 390.56 255.07 C 392.94 272.04 394.95 289.06 397.55 306.00 C 395.71 307.77 393.89 309.56 392.09 311.36 C 359.54 301.67 327.01 291.93 294.52 282.04 C 294.57 279.70 293.91 276.75 296.36 275.36 C 323.75 254.76 351.12 234.11 378.47 213.44 Z" />
<path fill="#e84e3f" d=" M 674.95 217.65 C 678.51 215.45 681.83 218.93 685.16 219.99 C 692.60 241.40 700.05 262.82 707.57 284.20 C 703.02 286.89 699.35 290.79 697.43 295.76 C 683.30 293.76 669.11 292.23 655.01 290.12 C 647.67 288.89 640.28 288.08 632.90 287.27 C 629.94 287.23 627.80 285.00 626.15 282.80 C 620.61 275.33 614.78 268.07 609.29 260.55 C 607.05 257.40 604.59 254.41 601.96 251.57 C 607.19 247.77 613.47 245.88 619.18 242.94 C 637.83 234.64 656.38 226.12 674.95 217.65 Z" />
<path fill="#e84e3f" d=" M 558.43 257.82 C 565.75 247.07 573.09 236.32 580.84 225.89 C 586.11 232.45 591.07 239.25 596.35 245.79 C 597.42 247.12 598.32 248.57 598.98 250.15 C 596.94 251.66 594.64 252.73 592.32 253.72 C 583.40 257.45 574.73 261.72 565.90 265.66 C 563.45 263.01 560.96 260.39 558.43 257.82 Z" />
<path fill="#e84e3f" d=" M 1076.98 240.34 C 1087.11 239.21 1096.62 234.56 1106.85 234.33 C 1104.35 238.31 1102.02 242.39 1099.71 246.48 C 1098.81 247.79 1097.99 249.77 1096.06 249.51 C 1089.64 249.58 1083.27 248.50 1076.86 248.21 C 1076.74 245.59 1076.78 242.96 1076.98 240.34 Z" />
<path fill="#e84e3f" d=" M 1083.96 250.73 C 1087.62 250.45 1091.35 250.14 1095.00 250.78 C 1095.46 251.47 1096.37 252.85 1096.83 253.54 C 1092.45 253.21 1087.75 253.25 1083.96 250.73 Z" />
<path fill="#e84e3f" d=" M 566.63 266.79 C 577.94 262.02 588.89 256.47 600.16 251.62 C 605.55 257.47 609.94 264.12 614.92 270.31 C 618.83 275.49 623.10 280.41 626.63 285.88 C 622.70 285.83 618.79 285.47 614.93 284.76 C 599.42 282.34 583.77 280.84 568.26 278.42 C 567.97 274.51 567.46 270.62 566.63 266.79 Z" />
<path fill="#e84e3f" d=" M 989.00 252.41 C 994.36 251.80 999.74 251.13 1005.15 251.61 C 1002.75 253.36 999.84 253.98 996.95 254.30 C 978.88 256.51 960.96 259.84 942.94 262.39 C 907.67 267.92 872.40 273.50 837.09 278.79 C 839.05 274.34 840.71 269.62 843.71 265.75 C 848.30 263.17 853.93 263.89 859.02 263.47 C 902.32 259.44 945.67 256.09 989.00 252.41 Z" />
<path fill="#e84e3f" d=" M 920.00 267.29 C 955.16 262.08 990.21 256.19 1025.38 251.08 C 1026.14 252.83 1026.92 254.59 1027.71 256.35 C 1018.41 262.55 1008.15 267.08 998.47 272.60 C 972.91 286.39 947.30 300.05 921.79 313.92 C 917.74 316.30 913.55 318.64 908.77 319.01 C 908.67 320.01 908.58 321.01 908.53 322.03 C 910.01 323.04 912.02 323.63 912.82 325.41 C 914.70 329.02 916.55 332.92 915.90 337.12 C 915.27 339.67 918.07 340.08 919.90 339.69 C 921.74 338.18 921.99 335.37 923.96 333.94 C 959.16 309.46 994.04 284.52 1029.27 260.09 C 1030.84 261.58 1033.19 263.87 1030.96 265.91 C 1014.84 284.17 998.71 302.43 982.86 320.92 C 972.67 332.38 962.52 343.86 952.48 355.44 C 946.88 362.28 940.53 368.45 935.11 375.43 C 933.65 375.06 932.20 374.69 930.77 374.33 C 929.45 375.63 928.16 376.95 926.86 378.26 C 917.87 378.48 908.93 379.54 899.94 379.63 C 891.32 380.86 882.59 380.12 873.98 381.39 C 859.28 381.72 844.63 383.24 829.94 383.79 C 826.25 384.18 823.63 381.11 820.87 379.20 C 812.83 372.81 804.18 367.19 796.54 360.32 C 807.69 337.33 819.28 314.56 830.44 291.58 C 832.38 287.83 833.67 283.63 836.44 280.37 C 846.90 278.30 857.56 277.22 868.11 275.55 C 885.32 272.30 902.76 270.42 920.00 267.29 Z" />
<path fill="#e84e3f" d=" M 1076.40 252.34 C 1082.38 252.12 1088.22 253.81 1094.05 254.89 C 1093.46 256.58 1092.86 258.28 1092.29 259.98 C 1086.43 259.13 1080.86 256.84 1075.62 254.17 C 1075.82 253.71 1076.21 252.79 1076.40 252.34 Z" />
<path fill="#e84e3f" d=" M 1096.64 251.69 C 1105.45 250.94 1114.21 252.45 1122.99 252.98 C 1148.68 254.62 1174.34 256.65 1200.00 258.65 L 1200.00 272.11 C 1189.74 270.97 1179.71 268.40 1169.51 266.92 C 1146.48 262.96 1123.57 258.32 1100.48 254.71 C 1098.63 254.60 1097.52 253.12 1096.64 251.69 Z" />
<path fill="#e84e3f" d=" M 144.59 259.39 C 147.13 258.43 148.60 255.99 150.25 254.00 C 159.13 255.71 168.10 257.14 176.87 259.38 C 176.98 262.19 174.28 263.75 172.64 265.64 C 170.81 267.26 169.35 269.48 167.08 270.50 C 159.34 271.32 151.68 269.39 143.95 269.39 C 139.62 269.31 135.33 268.74 131.03 268.24 C 132.52 265.05 134.40 262.08 136.45 259.22 C 139.15 259.41 141.91 259.94 144.59 259.39 Z" />
<path fill="#e84e3f" d=" M 1092.84 261.13 C 1094.35 258.82 1095.20 254.47 1098.87 255.77 C 1132.62 261.37 1166.21 268.06 1200.00 273.50 L 1200.00 301.24 C 1195.83 299.77 1191.59 298.50 1187.50 296.85 C 1165.20 288.29 1142.87 279.80 1120.44 271.58 C 1111.30 267.95 1102.11 264.43 1092.84 261.13 Z" />
<path fill="#e84e3f" d=" M 119.41 267.12 C 124.70 263.14 129.60 258.18 135.96 255.98 C 134.77 259.95 132.46 263.48 129.84 266.66 C 127.40 270.08 122.75 267.41 119.41 267.12 Z" />
<path fill="#e84e3f" d=" M 1074.92 256.02 C 1080.27 257.43 1085.34 259.68 1090.41 261.89 C 1089.08 264.72 1087.69 267.52 1086.23 270.28 C 1081.41 267.45 1077.06 263.93 1072.82 260.33 C 1073.50 258.89 1074.20 257.45 1074.92 256.02 Z" />
<path fill="#e84e3f" d=" M 178.96 261.02 C 180.28 259.68 182.30 260.42 183.93 260.58 C 190.02 261.85 196.13 263.11 202.17 264.64 C 200.58 267.66 199.39 271.48 196.12 273.10 C 187.44 272.71 178.78 271.87 170.10 271.41 C 172.35 267.40 175.63 264.12 178.96 261.02 Z" />
<path fill="#e84e3f" d=" M 0.00 260.72 C 8.36 259.92 16.67 261.61 25.00 262.11 C 46.36 263.19 67.65 265.35 89.01 266.54 C 90.92 266.79 93.24 266.73 94.52 268.44 C 97.18 271.44 99.21 274.91 101.53 278.16 C 97.23 281.36 92.90 284.53 88.66 287.82 C 86.77 289.14 84.78 290.85 82.32 290.74 C 78.13 290.55 74.07 289.39 69.95 288.68 C 46.64 284.56 23.36 280.25 0.00 276.36 L 0.00 260.72 Z" />
<path fill="#e84e3f" d=" M 1013.83 265.78 C 1016.82 264.28 1019.79 261.75 1023.38 262.40 C 990.17 285.90 956.80 309.15 923.62 332.68 C 922.12 333.65 919.99 335.52 918.46 333.56 C 915.84 329.76 914.03 325.34 913.07 320.82 C 915.28 318.55 918.33 317.45 921.05 315.94 C 951.93 299.12 982.94 282.57 1013.83 265.78 Z" />
<path fill="#e84e3f" d=" M 1060.52 270.19 C 1064.96 268.48 1068.57 265.30 1071.96 262.06 C 1076.60 264.92 1080.83 268.38 1085.06 271.81 C 1079.79 280.62 1075.00 289.71 1069.82 298.57 C 1068.86 299.81 1068.14 301.89 1066.25 301.72 C 1060.12 302.08 1054.12 300.35 1048.01 300.17 C 1046.50 297.84 1044.99 295.52 1043.50 293.19 C 1045.06 286.23 1046.16 279.17 1047.00 272.09 C 1051.53 271.80 1056.26 272.04 1060.52 270.19 Z" />
<path fill="#e84e3f" d=" M 1091.89 262.61 C 1101.06 265.10 1109.68 269.16 1118.67 272.18 C 1145.75 282.47 1172.86 292.70 1200.00 302.84 L 1200.00 317.42 C 1182.72 316.69 1165.66 313.46 1148.46 311.86 C 1144.57 311.40 1140.33 311.45 1137.05 309.03 C 1127.60 302.23 1118.62 294.79 1109.15 288.00 C 1101.82 282.34 1094.14 277.12 1087.04 271.16 C 1088.57 268.26 1090.18 265.41 1091.89 262.61 Z" />
<path fill="#e84e3f" d=" M 200.27 270.28 C 201.50 268.19 203.13 266.38 204.71 264.55 C 223.30 268.89 242.13 272.16 260.84 275.93 C 262.56 276.20 263.90 277.29 265.36 278.15 C 258.55 278.15 251.84 276.90 245.06 276.58 C 237.64 276.61 230.32 275.30 222.91 275.14 C 215.19 274.18 207.37 274.47 199.68 273.28 C 198.76 272.29 199.85 271.22 200.27 270.28 Z" />
<path fill="#e84e3f" d=" M 1012.61 288.76 C 1019.34 280.84 1026.63 273.40 1033.04 265.21 C 1037.22 267.55 1041.41 269.91 1045.85 271.76 C 1045.09 278.06 1043.67 284.26 1042.84 290.55 C 1042.49 293.86 1039.55 295.75 1037.23 297.69 C 1037.45 300.46 1038.83 302.85 1040.57 304.96 C 1038.71 322.32 1036.45 339.65 1034.69 357.02 C 1034.73 360.58 1032.30 363.19 1030.62 366.06 C 1030.85 368.76 1031.88 371.52 1030.90 374.20 C 1023.69 396.91 1017.09 419.80 1009.89 442.52 C 1007.35 450.80 1005.15 459.18 1002.20 467.33 C 997.14 466.46 992.09 465.20 986.93 465.39 C 982.29 465.51 977.82 466.85 973.33 467.88 C 962.20 443.71 951.75 419.24 940.87 394.97 C 938.89 388.91 933.17 383.03 936.37 376.34 C 938.95 372.34 942.55 369.11 945.55 365.44 C 951.38 359.29 956.45 352.47 962.29 346.33 C 970.72 337.08 978.54 327.29 987.06 318.12 C 995.38 308.17 1004.34 298.76 1012.61 288.76 Z" />
<path fill="#e84e3f" d=" M 95.63 267.55 C 101.81 267.09 107.96 267.99 114.07 268.78 C 110.65 271.82 107.06 274.77 102.96 276.86 C 99.69 274.53 97.87 270.78 95.63 267.55 Z" />
<path fill="#e84e3f" d=" M 114.06 270.87 C 117.95 267.95 123.05 269.58 127.47 269.76 C 123.21 277.44 118.29 284.75 113.20 291.90 C 110.28 287.27 105.89 283.40 104.10 278.18 C 107.13 275.38 110.71 273.26 114.06 270.87 Z" />
<path fill="#e84e3f" d=" M 130.01 269.83 C 132.96 269.17 135.98 270.25 138.96 270.36 C 148.02 270.71 157.01 271.95 166.08 271.89 C 164.79 273.92 163.36 275.88 161.62 277.56 C 153.94 285.14 147.08 293.51 139.25 300.93 C 132.87 300.06 126.58 298.63 120.21 297.72 C 117.71 297.42 115.78 295.71 113.88 294.23 C 117.22 287.74 121.83 282.03 125.54 275.76 C 126.87 273.68 128.05 271.40 130.01 269.83 Z" />
<path fill="#e84e3f" d=" M 158.54 282.56 C 161.92 279.19 164.88 275.29 168.87 272.61 C 177.76 272.99 186.71 273.43 195.53 274.73 C 190.54 284.06 184.13 292.56 178.46 301.48 C 177.29 303.26 176.22 305.14 174.75 306.69 C 171.88 307.07 169.02 306.32 166.21 305.84 C 158.09 304.15 149.79 303.36 141.74 301.32 C 146.66 294.48 153.04 288.90 158.54 282.56 Z" />
<path fill="#e84e3f" d=" M 1069.11 302.35 C 1074.77 292.54 1080.39 282.72 1085.94 272.85 C 1092.45 276.51 1097.93 281.68 1104.04 285.95 C 1114.47 294.15 1125.75 301.31 1135.56 310.28 C 1123.07 309.20 1110.68 307.12 1098.21 305.92 C 1088.52 304.59 1078.74 304.01 1069.11 302.35 Z" />
<path fill="#e84e3f" d=" M 191.65 283.79 C 193.95 280.71 195.42 276.34 198.98 274.61 C 224.97 276.71 251.01 278.45 277.05 280.20 C 280.50 280.48 284.48 280.59 286.73 283.68 C 279.77 292.45 273.55 301.77 266.67 310.61 C 264.12 313.76 262.25 317.44 259.41 320.35 C 257.75 322.09 255.18 321.81 253.04 321.47 C 227.63 316.78 202.19 312.30 176.74 307.80 C 180.48 299.10 186.98 291.98 191.65 283.79 Z" />
<path fill="#e84e3f" d=" M 0.00 277.56 C 27.21 282.41 54.39 287.48 81.66 292.06 C 79.77 294.05 77.80 295.97 75.57 297.57 C 66.63 303.93 57.71 310.33 49.05 317.08 C 43.50 321.53 35.40 323.79 28.71 320.62 C 19.20 316.80 9.53 313.41 0.00 309.66 L 0.00 277.56 Z" />
<path fill="#e84e3f" d=" M 87.00 290.96 C 91.66 286.58 97.29 283.41 102.23 279.36 C 105.21 283.19 108.14 287.06 110.94 291.02 C 112.09 292.37 111.77 294.21 111.89 295.85 C 103.71 295.13 95.75 293.00 87.62 291.97 L 87.00 290.96 Z" />
<path fill="#e84e3f" d=" M 568.19 280.32 C 570.44 280.00 572.71 280.36 574.94 280.71 C 592.62 283.41 610.44 285.14 628.13 287.82 C 632.88 292.84 636.47 298.80 640.88 304.10 C 643.79 307.96 647.47 311.40 649.35 315.94 C 650.38 318.92 647.55 320.91 645.63 322.62 C 623.28 340.58 601.00 358.61 579.02 377.01 C 574.49 376.19 574.13 371.35 573.03 367.75 C 570.41 357.50 566.99 347.48 564.40 337.23 C 561.64 328.21 559.52 319.01 556.67 310.02 C 555.28 305.52 554.02 300.97 553.04 296.37 C 556.65 294.81 560.20 292.86 562.77 289.80 C 565.34 287.12 566.35 283.46 568.19 280.32 Z" />
<path fill="#e84e3f" d=" M 828.00 281.64 C 829.99 281.40 832.00 281.38 834.01 281.40 C 821.35 307.63 808.14 333.60 795.28 359.74 C 785.93 352.81 776.68 345.75 767.38 338.75 C 762.47 334.94 757.28 331.46 752.71 327.22 C 753.11 328.13 752.70 329.54 753.60 330.22 C 767.39 340.32 780.94 350.75 794.62 361.00 C 791.29 368.35 787.34 375.40 783.91 382.70 C 781.92 383.32 779.21 383.02 777.90 384.93 C 777.07 387.45 777.38 390.49 775.32 392.47 C 767.26 401.12 758.62 409.21 750.64 417.94 C 748.84 420.08 746.40 421.50 743.64 421.95 C 742.32 423.61 741.10 425.54 738.99 426.26 C 718.70 434.96 698.50 443.89 678.17 452.51 C 678.66 447.56 680.00 442.78 681.13 437.96 C 686.43 413.59 692.43 389.38 697.54 364.96 C 701.30 349.77 704.54 334.46 707.97 319.20 C 708.22 318.16 708.57 317.16 709.01 316.19 C 712.61 315.09 716.79 316.51 720.17 314.39 C 722.54 313.20 724.38 310.88 727.01 310.31 C 730.87 312.45 734.14 315.48 737.69 318.08 C 742.08 321.51 746.83 324.51 750.76 328.51 C 751.34 327.96 751.93 327.41 752.53 326.86 C 744.77 322.47 738.27 316.24 730.87 311.31 C 729.63 310.13 726.86 309.24 727.86 307.07 C 728.85 303.69 729.52 300.23 729.71 296.71 C 762.52 291.98 795.21 286.49 828.00 281.64 Z" />
<path fill="#e84e3f" d=" M 475.00 294.70 C 492.07 289.96 509.37 286.05 526.41 281.18 C 527.72 283.64 529.31 286.05 529.87 288.83 C 529.28 290.16 528.13 291.12 527.14 292.14 C 518.31 300.31 509.15 308.10 500.49 316.46 C 498.01 318.91 494.99 320.69 492.03 322.48 C 500.84 327.56 508.86 333.84 517.02 339.90 C 535.36 353.26 553.76 366.54 571.97 380.06 C 575.45 382.48 575.66 387.01 576.79 390.72 C 585.21 418.64 593.89 446.49 602.03 474.50 C 595.12 476.35 588.12 477.86 581.26 479.91 C 577.95 481.01 574.49 480.05 571.12 480.24 C 568.89 480.78 566.47 482.72 564.41 480.68 C 533.63 460.51 502.98 440.11 472.20 419.92 C 469.28 418.19 471.11 413.70 468.41 411.71 C 465.94 410.30 462.27 410.77 460.96 407.78 C 442.60 378.14 423.75 348.81 405.50 319.10 C 406.12 316.70 406.72 314.29 407.31 311.88 C 419.00 309.17 430.52 305.80 442.19 303.02 C 453.18 300.46 463.95 297.03 475.00 294.70 Z" />
<path fill="#e84e3f" d=" M 289.11 285.43 C 291.73 284.14 294.62 282.96 297.50 284.25 C 327.61 293.51 357.80 302.49 387.99 311.49 C 389.84 311.89 391.41 312.93 392.81 314.18 C 386.87 314.97 380.89 315.37 374.91 315.63 C 347.11 317.60 319.33 319.85 291.54 321.70 C 290.40 309.63 289.66 297.54 289.11 285.43 Z" />
<path fill="#e84e3f" d=" M 278.18 297.26 C 281.22 293.49 283.58 289.17 287.21 285.89 C 289.18 292.61 287.99 299.66 289.03 306.50 C 289.75 311.57 289.75 316.70 289.74 321.81 C 281.53 322.68 273.28 323.37 265.03 323.62 C 263.00 323.97 261.50 322.54 260.09 321.34 C 266.73 313.78 271.93 305.12 278.18 297.26 Z" />
<path fill="#e84e3f" d=" M 631.07 288.46 C 652.47 290.60 673.71 294.17 695.05 296.85 C 698.47 296.90 696.79 301.35 696.84 303.54 C 683.33 306.82 670.14 311.27 656.80 315.19 C 653.22 316.24 649.63 314.05 647.79 311.05 C 642.41 303.37 636.08 296.39 631.07 288.46 Z" />
<path fill="#e84e3f" d=" M 514.47 305.47 C 520.19 300.37 525.58 294.86 531.70 290.23 C 534.59 292.51 537.53 295.00 541.18 295.95 C 544.64 296.83 548.24 296.80 551.79 297.07 C 558.76 323.00 566.38 348.77 573.67 374.61 C 574.11 376.19 572.98 377.56 572.48 378.97 C 547.30 359.96 521.50 341.78 496.26 322.85 C 501.59 316.32 508.62 311.50 514.47 305.47 Z" />
<path fill="#e84e3f" d=" M 84.24 293.13 C 87.05 292.87 89.83 293.66 92.58 294.13 C 98.27 295.35 104.16 295.64 109.67 297.63 C 91.53 325.43 73.29 353.15 54.99 380.83 C 52.84 384.04 51.07 387.54 48.45 390.41 C 45.82 391.05 43.04 390.14 40.37 389.96 C 40.78 375.65 39.97 361.30 41.31 347.02 C 41.98 339.97 40.02 332.52 43.16 325.85 C 43.85 323.84 44.48 321.60 46.42 320.43 C 55.72 313.75 64.86 306.84 74.19 300.19 C 77.56 297.87 80.46 294.79 84.24 293.13 Z" />
<path fill="#e84e3f" d=" M 110.17 299.18 C 111.20 297.15 113.96 297.03 115.53 298.49 C 118.68 301.10 120.63 304.79 123.17 307.94 C 124.51 309.88 126.36 311.67 126.81 314.08 C 116.82 325.60 106.07 336.47 95.77 347.71 C 90.53 353.83 84.55 359.26 79.16 365.24 C 72.83 372.22 66.24 378.95 59.96 385.97 C 57.50 388.75 54.91 391.42 52.14 393.90 C 51.53 393.36 50.33 392.28 49.73 391.74 C 57.23 379.42 65.63 367.67 73.22 355.41 C 85.73 336.79 97.88 317.93 110.17 299.18 Z" />
<path fill="#e84e3f" d=" M 118.85 299.28 C 125.28 299.43 131.45 301.48 137.84 301.98 C 135.30 306.19 131.62 309.49 128.05 312.80 C 125.15 308.17 121.29 304.20 118.85 299.28 Z" />
<path fill="#e84e3f" d=" M 1041.66 304.96 C 1044.18 303.43 1046.73 301.11 1049.93 301.60 C 1055.50 302.00 1061.06 302.72 1066.57 303.70 C 1059.45 316.75 1052.01 329.63 1044.51 342.48 C 1041.97 346.77 1040.16 351.57 1036.52 355.12 C 1037.54 338.35 1040.37 321.72 1041.66 304.96 Z" />
<path fill="#e84e3f" d=" M 129.50 313.99 C 132.70 309.69 136.62 305.96 140.67 302.47 C 151.53 305.01 162.71 306.03 173.52 308.82 C 167.74 318.19 161.59 327.31 155.66 336.58 C 154.26 338.96 152.26 340.88 149.94 342.34 C 143.77 335.59 139.21 327.59 133.54 320.44 C 132.16 318.34 129.98 316.53 129.50 313.99 Z" />
<path fill="#e84e3f" d=" M 1068.12 304.08 C 1077.12 304.19 1085.94 306.17 1094.89 306.97 C 1108.60 308.50 1122.30 310.16 1136.00 311.71 C 1140.79 312.45 1144.16 316.30 1148.01 318.90 C 1165.25 332.19 1182.91 344.93 1200.00 358.41 L 1200.00 429.44 C 1188.35 434.76 1176.04 438.47 1164.15 443.22 C 1145.54 450.15 1126.96 457.14 1108.38 464.15 C 1106.19 457.63 1104.56 450.94 1102.41 444.41 C 1100.65 437.83 1097.22 431.14 1099.49 424.23 C 1097.92 424.20 1096.36 424.12 1094.83 424.01 C 1099.45 437.30 1102.94 450.93 1107.07 464.37 C 1100.52 467.36 1093.65 469.50 1086.95 472.10 C 1067.54 479.46 1048.05 486.62 1028.66 494.05 C 1025.92 488.73 1023.34 483.18 1019.14 478.82 C 1014.92 474.16 1009.42 470.99 1003.96 468.01 C 1004.81 463.85 1005.98 459.76 1007.32 455.73 C 1015.57 428.29 1024.12 400.94 1032.35 373.50 C 1033.51 370.15 1035.86 366.05 1039.99 366.42 C 1051.68 366.03 1063.31 367.79 1075.00 367.41 C 1090.13 368.00 1105.32 366.79 1120.41 368.33 C 1126.84 368.54 1133.31 368.46 1139.68 369.64 C 1139.66 368.56 1139.66 367.48 1139.68 366.41 C 1130.90 367.78 1121.96 367.67 1113.15 366.84 C 1096.78 365.77 1080.36 366.89 1064.00 365.75 C 1054.23 365.33 1044.44 365.65 1034.69 364.95 C 1036.82 357.15 1041.63 350.55 1045.51 343.57 C 1053.24 330.52 1060.52 317.22 1068.12 304.08 Z" />
<path fill="#e84e3f" d=" M 683.85 308.40 C 688.26 307.26 692.56 305.52 697.13 305.09 C 699.94 309.10 702.93 313.09 707.53 315.21 C 698.76 353.79 690.17 392.41 681.24 430.96 C 679.46 437.62 678.70 444.54 676.47 451.09 C 674.77 451.27 673.07 451.35 671.42 451.76 C 668.91 453.11 670.38 457.91 667.01 458.10 C 658.15 459.88 649.66 463.18 640.69 464.38 C 641.85 442.89 644.09 421.46 644.83 399.97 C 646.69 382.02 647.10 363.97 648.64 346.00 C 649.85 337.69 649.00 329.22 650.66 320.95 C 651.83 320.68 653.01 320.41 654.20 320.15 C 654.80 319.00 655.40 317.85 656.01 316.71 C 665.28 313.91 674.61 311.31 683.85 308.40 Z" />
<path fill="#e84e3f" d=" M 175.20 309.10 C 185.04 310.26 194.71 312.49 204.46 314.15 C 221.35 316.93 238.13 320.31 255.05 322.89 C 255.78 323.82 256.51 324.76 257.24 325.71 C 268.29 324.84 279.33 323.78 290.41 323.45 C 291.16 339.56 291.99 355.67 293.55 371.72 C 285.85 370.94 278.39 368.80 270.80 367.44 C 233.11 359.95 195.44 352.30 157.72 344.97 C 155.92 344.73 154.44 343.73 153.27 342.39 C 160.84 331.46 167.65 320.04 175.20 309.10 Z" />
<path fill="#e84e3f" d=" M 0.00 311.60 C 4.82 313.06 9.64 314.56 14.29 316.53 C 20.47 319.19 27.23 320.56 32.91 324.31 C 21.93 323.17 10.95 322.00 0.00 320.61 L 0.00 311.60 Z" />
<path fill="#e84e3f" d=" M 1142.91 312.68 C 1161.93 314.99 1181.05 316.64 1200.00 319.53 L 1200.00 356.41 C 1187.33 346.98 1174.78 337.40 1162.12 327.96 C 1155.73 322.85 1148.75 318.45 1142.91 312.68 Z" />
<path fill="#e84e3f" d=" M 98.55 346.57 C 108.45 336.21 118.25 325.76 127.91 315.17 C 135.30 324.55 141.98 334.47 148.95 344.17 C 137.95 350.95 126.67 357.25 115.48 363.71 C 95.66 375.40 75.77 387.01 55.72 398.32 C 55.33 397.44 54.56 395.68 54.17 394.79 C 56.40 390.96 59.88 388.11 62.85 384.88 C 74.64 372.01 86.99 359.65 98.55 346.57 Z" />
<path fill="#e84e3f" d=" M 310.99 321.60 C 338.32 319.52 365.65 317.76 392.96 315.54 C 392.81 317.04 392.18 318.27 391.09 319.22 C 374.08 332.18 357.00 345.04 339.99 358.00 C 331.66 364.13 323.80 370.90 315.11 376.52 C 308.42 374.70 301.56 373.65 294.78 372.27 C 293.51 361.88 293.76 351.40 292.52 341.01 C 292.35 335.12 292.11 329.24 291.29 323.39 C 297.79 322.21 304.43 322.22 310.99 321.60 Z" />
<path fill="#e84e3f" d=" M 393.58 319.39 C 397.24 319.97 400.89 320.89 404.62 320.33 C 413.48 335.07 422.80 349.54 431.91 364.12 C 441.95 379.82 451.60 395.77 461.74 411.40 C 460.34 412.86 458.71 414.79 456.47 413.67 C 423.05 404.02 389.45 395.00 356.09 385.16 C 353.37 384.28 351.93 381.10 349.04 380.61 C 345.74 381.02 342.42 382.23 339.09 381.25 C 332.20 379.69 325.24 378.48 318.36 376.88 C 319.95 375.25 321.59 373.66 323.39 372.27 C 342.97 357.55 362.44 342.69 381.93 327.87 C 385.93 325.20 389.33 321.65 393.58 319.39 Z" />
<path fill="#e84e3f" d=" M 0.00 322.01 C 10.35 322.88 20.62 324.53 30.95 325.56 C 34.52 325.72 37.42 327.91 40.20 329.92 C 40.33 336.92 40.51 343.93 39.92 350.92 C 39.35 362.63 39.64 374.37 39.28 386.08 C 39.62 391.50 33.15 392.45 29.67 395.00 C 24.28 391.62 19.44 387.48 14.38 383.65 C 9.65 379.96 4.64 376.62 0.00 372.82 L 0.00 322.01 Z" />
<path fill="#e84e3f" d=" M 634.88 332.84 C 639.37 329.11 643.78 325.25 648.64 322.00 C 648.39 339.37 646.44 356.65 645.53 373.98 C 643.71 397.33 642.58 420.73 640.77 444.10 C 640.68 450.96 639.55 457.77 639.67 464.64 C 630.85 467.81 621.52 469.20 612.57 471.90 C 609.45 472.93 606.22 473.58 602.93 473.61 C 598.85 458.35 593.93 443.33 589.53 428.16 C 585.12 413.00 580.31 397.96 575.73 382.85 C 581.34 375.36 589.44 370.45 596.34 364.29 C 609.28 353.93 622.05 343.34 634.88 332.84 Z" />
<path fill="#e84e3f" d=" M 152.90 345.56 C 158.00 346.03 162.96 347.35 167.97 348.36 C 179.96 350.91 192.10 352.77 204.05 355.55 C 233.88 361.42 263.72 367.17 293.43 373.58 C 293.34 379.43 294.68 385.21 294.49 391.06 C 294.71 392.64 293.23 393.52 292.21 394.39 C 279.03 404.18 266.05 414.23 252.98 424.17 C 250.40 426.43 246.89 426.47 243.66 426.69 C 230.17 415.46 217.46 403.30 204.08 391.93 C 193.67 381.96 182.23 373.13 171.86 363.13 C 165.60 357.21 158.29 352.35 152.90 345.56 Z" />
<path fill="#e84e3f" d=" M 139.58 351.43 C 143.10 349.45 146.36 346.90 150.34 345.88 C 150.24 356.97 152.29 367.95 152.45 379.04 C 153.96 397.55 155.86 416.05 156.74 434.61 C 155.35 434.75 153.93 435.09 152.54 434.80 C 124.98 428.06 97.45 421.16 69.86 414.52 C 65.91 413.37 61.72 412.91 58.02 411.04 C 57.78 407.03 57.88 403.00 57.36 399.01 C 84.86 383.32 112.13 367.22 139.58 351.43 Z" />
<path fill="#e84e3f" d=" M 151.50 347.88 C 156.49 350.93 160.54 355.22 164.97 358.99 C 189.92 381.07 214.79 403.23 239.72 425.32 C 241.85 427.28 243.30 429.80 244.76 432.26 C 250.69 434.04 254.18 439.42 258.68 443.26 C 268.22 453.01 278.41 462.09 287.91 471.90 C 286.60 473.77 285.31 475.65 284.02 477.53 C 247.07 465.41 210.12 453.30 173.26 440.92 C 170.32 439.89 167.04 439.53 164.41 437.79 C 162.42 435.63 160.30 433.60 158.14 431.62 C 157.01 427.85 157.70 423.80 157.24 419.93 C 155.92 406.64 155.10 393.30 153.78 380.02 C 153.53 369.27 151.87 358.61 151.50 347.88 Z" />
<path fill="#e84e3f" d=" M 795.35 363.22 C 798.57 362.92 800.85 366.03 803.38 367.60 C 810.16 373.45 818.15 377.75 824.56 384.03 C 816.01 384.39 807.50 385.37 798.95 385.44 C 794.23 385.50 789.54 386.82 784.83 385.98 C 785.56 382.18 787.22 378.67 789.10 375.33 C 791.34 371.37 792.58 366.87 795.35 363.22 Z" />
<path fill="#e84e3f" d=" M 294.52 373.97 C 300.89 374.85 307.22 376.00 313.51 377.38 C 308.39 382.89 301.87 386.86 295.91 391.39 C 295.59 385.57 295.29 379.75 294.52 373.97 Z" />
<path fill="#e84e3f" d=" M 0.00 375.31 C 6.35 378.55 11.44 383.60 17.28 387.61 C 20.87 390.41 24.93 392.71 27.99 396.14 C 27.00 401.22 25.55 406.31 26.38 411.56 C 17.79 415.42 8.79 418.25 0.00 421.62 L 0.00 375.31 Z" />
<path fill="#e84e3f" d=" M 314.43 379.23 C 316.50 377.52 319.26 378.50 321.60 378.96 C 328.36 380.69 335.30 381.64 342.15 383.01 C 342.45 385.97 343.20 388.86 343.64 391.80 C 343.35 393.73 342.27 395.43 341.44 397.17 C 335.17 409.34 329.23 421.67 323.08 433.91 C 322.30 435.17 321.65 436.99 319.89 437.04 C 314.59 437.14 309.37 436.00 304.10 435.64 C 302.27 435.28 300.01 435.67 298.60 434.18 C 298.00 426.85 297.49 419.51 297.23 412.17 C 296.79 405.70 296.12 399.23 296.31 392.74 C 302.63 388.61 308.28 383.58 314.43 379.23 Z" />
<path fill="#e84e3f" d=" M 905.01 380.64 C 912.09 380.84 919.11 379.88 926.17 379.37 C 923.00 385.22 918.10 389.85 914.24 395.22 C 905.08 406.36 896.44 417.92 887.20 428.98 C 869.43 416.09 852.18 402.49 834.49 389.49 C 832.80 388.23 831.48 386.58 830.19 384.96 C 855.12 383.47 880.09 382.39 905.01 380.64 Z" />
<path fill="#e84e3f" d=" M 915.65 395.64 C 919.67 390.85 923.15 385.61 927.52 381.12 C 929.79 382.00 932.16 382.71 934.31 383.90 C 936.64 387.49 937.72 391.72 939.55 395.57 C 950.57 419.71 961.03 444.10 971.99 468.27 C 966.20 471.80 960.62 475.68 955.99 480.67 C 951.16 477.76 946.79 474.19 942.33 470.76 C 924.39 457.25 906.38 443.83 888.68 430.02 C 897.30 418.27 906.60 407.06 915.65 395.64 Z" />
<path fill="#e84e3f" d=" M 803.96 386.54 C 811.00 386.58 817.98 385.02 825.04 385.49 C 826.51 385.46 827.85 386.12 829.04 386.96 C 848.05 401.31 867.05 415.69 886.08 430.01 C 882.62 435.45 878.30 440.25 874.35 445.33 C 864.49 457.78 854.51 470.14 844.61 482.56 C 839.95 487.88 836.39 494.20 830.90 498.77 C 830.16 485.19 831.27 471.53 829.52 458.03 C 829.82 447.13 829.47 436.22 829.86 425.32 C 831.17 423.96 832.47 422.60 833.77 421.22 C 833.40 420.54 832.66 419.17 832.29 418.49 C 828.70 417.95 824.93 417.45 822.05 415.05 C 811.40 407.30 800.58 399.82 789.76 392.32 C 787.95 391.17 786.53 389.55 785.24 387.88 C 791.47 387.35 797.69 386.46 803.96 386.54 Z" />
<path fill="#e84e3f" d=" M 355.34 386.59 C 367.33 389.50 379.15 393.11 391.01 396.52 C 409.04 401.41 426.98 406.64 444.95 411.76 C 449.12 413.00 453.46 413.71 457.49 415.41 C 459.93 416.37 461.48 419.62 460.14 422.03 C 458.98 424.76 457.34 427.25 455.85 429.81 C 443.85 449.87 432.34 470.22 420.40 490.31 C 418.55 494.00 413.63 494.51 411.63 497.96 C 411.37 501.83 414.98 504.96 414.50 508.95 C 413.51 524.63 412.24 540.30 411.20 555.99 C 410.52 562.30 410.12 568.65 410.34 575.00 L 373.00 575.00 C 369.03 568.16 363.71 561.55 363.16 553.35 C 355.77 549.74 351.74 542.36 346.46 536.47 C 334.97 523.05 323.77 509.40 312.29 495.98 C 314.39 491.64 316.98 486.99 315.94 481.99 C 315.12 476.54 311.18 472.37 307.17 468.90 C 311.84 458.92 316.89 449.12 321.80 439.25 C 328.23 439.49 334.68 439.89 341.05 440.86 C 344.42 441.37 347.40 443.57 350.83 443.68 C 353.31 442.81 355.54 439.73 353.99 437.15 C 352.61 435.37 350.43 434.50 348.58 433.33 C 348.38 419.96 348.38 406.58 348.62 393.21 C 351.37 391.57 353.63 389.29 355.34 386.59 Z" />
<path fill="#e84e3f" d=" M 777.88 391.59 C 780.22 391.27 782.58 390.95 784.93 390.60 C 796.43 398.49 807.85 406.49 819.23 414.56 C 821.52 416.25 824.53 417.40 825.79 420.15 C 827.20 422.91 828.52 425.86 828.46 429.03 C 828.53 439.71 828.46 450.41 828.86 461.08 C 829.88 470.03 829.31 479.04 829.54 488.02 C 829.47 491.84 830.17 495.86 828.55 499.47 C 827.46 502.05 827.60 505.23 825.34 507.19 C 812.17 520.54 799.56 534.43 786.40 547.79 C 783.76 547.18 781.11 546.64 778.45 546.16 C 774.87 532.03 770.36 518.17 766.63 504.08 C 761.17 486.08 756.48 467.86 750.98 449.86 C 749.03 442.19 746.25 434.74 744.67 426.97 C 754.74 414.27 766.91 403.48 777.88 391.59 Z" />
<path fill="#e84e3f" d=" M 322.91 437.44 C 330.44 421.98 337.85 406.44 346.05 391.33 C 346.89 393.80 347.33 396.39 347.24 399.01 C 347.12 409.69 347.18 420.36 347.21 431.03 C 347.40 434.23 345.57 436.96 344.16 439.67 C 337.05 439.27 329.94 438.63 322.91 437.44 Z" />
<path fill="#e84e3f" d=" M 257.49 422.44 C 269.81 413.28 281.72 403.53 294.34 394.80 C 296.35 407.93 296.21 421.30 297.44 434.52 C 287.07 434.39 276.85 432.34 266.51 431.74 C 261.01 430.72 255.16 431.39 249.94 429.15 C 252.18 426.62 254.74 424.41 257.49 422.44 Z" />
<path fill="#e84e3f" d=" M 56.56 413.09 C 61.65 413.47 66.52 415.01 71.44 416.24 C 86.71 419.93 101.91 423.88 117.21 427.45 C 129.31 430.99 141.97 432.59 153.73 437.17 C 147.91 439.18 141.71 439.49 135.74 440.86 C 121.42 444.00 106.92 446.27 92.60 449.44 C 91.02 448.08 89.55 446.53 87.68 445.58 C 85.79 445.25 83.85 445.35 81.94 445.33 C 72.73 435.92 63.10 426.91 54.19 417.22 C 54.98 415.84 55.78 414.46 56.56 413.09 Z" />
<path fill="#e84e3f" d=" M 0.00 423.07 C 8.99 419.82 17.88 416.29 26.90 413.14 C 29.60 416.88 33.06 419.97 37.04 422.29 C 34.31 432.02 30.19 441.27 26.92 450.81 C 23.35 461.24 19.26 471.48 15.57 481.86 C 10.39 484.02 5.07 485.87 0.00 488.31 L 0.00 423.07 Z" />
<path fill="#e84e3f" d=" M 41.38 422.96 C 45.18 422.38 48.64 420.73 52.17 419.33 C 53.96 418.60 55.32 420.48 56.54 421.48 C 62.66 427.68 68.80 433.85 74.99 439.97 C 76.88 441.88 79.00 443.63 80.45 445.93 C 80.35 449.04 79.85 452.12 79.67 455.23 C 69.03 459.46 58.56 464.11 47.85 468.17 C 45.25 453.17 43.83 437.99 41.38 422.96 Z" />
<path fill="#e84e3f" d=" M 462.03 421.75 C 464.51 421.19 466.97 420.37 469.54 420.31 C 472.84 421.36 475.47 423.79 478.37 425.61 C 506.88 444.29 535.24 463.20 563.73 481.90 C 565.85 483.08 566.69 485.39 567.67 487.46 C 568.70 490.49 572.66 490.23 574.51 492.48 C 587.80 510.34 601.08 528.22 614.53 545.96 C 610.49 550.13 607.18 554.93 604.98 560.32 C 546.16 540.62 487.56 520.28 428.79 500.43 C 425.52 499.43 421.55 498.52 420.20 494.92 C 420.56 491.48 423.02 488.73 424.62 485.77 C 437.08 464.43 449.66 443.15 462.03 421.75 Z" />
<path fill="#e84e3f" d=" M 37.74 424.97 C 38.32 423.91 39.03 422.95 39.88 422.09 C 42.32 437.51 44.16 453.02 46.60 468.44 C 43.95 470.09 41.11 471.44 38.14 472.44 C 31.33 474.85 24.91 478.25 18.05 480.53 C 19.07 474.76 21.80 469.54 23.50 463.98 C 28.18 450.95 33.26 438.06 37.74 424.97 Z" />
<path fill="#e84e3f" d=" M 738.67 430.80 C 739.87 429.17 741.40 427.84 742.95 426.54 C 752.79 460.07 762.10 493.76 771.89 527.31 C 773.46 534.12 776.48 540.63 776.91 547.67 C 775.61 548.14 774.32 548.62 773.05 549.10 C 756.61 534.19 740.88 518.52 724.51 503.55 C 717.13 496.21 709.16 489.45 701.96 481.93 C 700.21 480.75 702.03 479.09 702.70 477.84 C 714.74 462.20 726.91 446.66 738.67 430.80 Z" />
<path fill="#e84e3f" d=" M 727.56 432.63 C 731.16 431.06 734.77 429.46 738.55 428.36 C 735.97 432.70 732.68 436.53 729.64 440.55 C 719.73 453.53 709.76 466.46 699.83 479.43 C 697.27 477.68 695.02 475.55 692.85 473.36 C 687.53 468.44 682.13 463.59 677.17 458.30 C 677.49 456.88 677.81 455.47 678.15 454.07 C 694.61 446.91 711.14 439.90 727.56 432.63 Z" />
<path fill="#e84e3f" d=" M 249.20 431.49 C 265.03 432.05 280.69 435.27 296.52 435.66 C 298.40 440.20 298.06 445.19 298.37 449.99 C 298.55 455.74 299.34 461.46 299.45 467.22 C 295.84 468.20 292.31 469.43 288.85 470.86 C 277.52 459.97 266.47 448.78 254.98 438.05 C 252.83 436.07 250.90 433.86 249.20 431.49 Z" />
<path fill="#e84e3f" d=" M 875.70 445.63 C 879.79 440.87 883.42 435.73 887.65 431.09 C 909.95 448.14 932.27 465.15 954.87 481.80 C 950.38 489.05 947.02 497.03 946.40 505.61 C 942.26 505.59 938.12 505.56 934.01 505.18 C 923.88 504.12 913.65 505.02 903.53 503.93 C 895.75 503.17 887.91 504.01 880.15 503.08 C 870.79 502.07 861.37 502.60 851.99 502.27 C 845.58 501.58 839.14 501.61 832.73 501.14 C 834.54 496.51 838.15 493.01 841.14 489.14 C 852.69 474.66 864.41 460.32 875.70 445.63 Z" />
<path fill="#e84e3f" d=" M 1108.94 465.26 C 1139.34 454.05 1169.67 442.62 1200.00 431.23 L 1200.00 497.12 C 1194.53 499.95 1188.68 501.94 1183.07 504.45 C 1166.04 511.23 1149.26 518.64 1132.21 525.38 C 1129.90 524.13 1127.60 522.90 1125.29 521.69 C 1122.94 514.23 1120.68 506.74 1118.61 499.21 C 1115.47 487.87 1111.63 476.72 1108.94 465.26 Z" />
<path fill="#e84e3f" d=" M 299.34 436.39 C 306.34 437.19 313.35 437.92 320.36 438.61 C 317.65 445.47 313.84 451.81 310.72 458.47 C 309.06 462.02 307.33 465.55 305.42 468.98 C 303.82 468.42 302.22 467.87 300.62 467.33 C 300.60 457.00 298.87 446.75 299.34 436.39 Z" />
<path fill="#e84e3f" d=" M 151.80 439.25 C 154.48 438.61 156.48 440.99 158.97 441.31 C 161.27 440.85 163.42 438.85 165.83 439.85 C 190.49 447.92 215.03 456.38 239.75 464.27 C 254.12 469.14 268.60 473.68 282.88 478.80 C 282.76 481.60 282.70 484.42 282.10 487.17 C 277.24 488.83 271.90 488.42 266.89 489.60 C 265.02 488.17 263.45 485.80 260.98 485.53 C 259.05 486.40 257.39 487.72 255.71 488.98 C 246.70 487.82 237.96 485.21 229.06 483.43 C 183.61 473.39 138.26 462.92 92.76 453.11 C 92.56 452.48 92.17 451.23 91.97 450.60 C 112.00 447.31 131.82 442.80 151.80 439.25 Z" />
<path fill="#e84e3f" d=" M 88.34 456.78 C 89.18 455.92 90.00 455.05 90.81 454.18 C 112.50 458.34 133.89 463.88 155.53 468.26 C 187.32 475.50 219.09 482.76 250.97 489.56 C 255.03 490.14 257.35 494.01 260.99 495.36 C 263.59 495.21 265.23 492.43 267.21 490.92 C 271.55 490.23 275.87 489.31 280.28 489.19 C 283.87 488.64 285.33 492.96 285.88 495.78 C 283.27 499.48 279.68 502.33 276.65 505.68 C 257.43 526.11 237.23 545.58 218.08 566.09 C 214.73 569.94 210.17 572.34 205.89 575.00 L 190.53 575.00 C 172.35 572.86 154.25 570.11 136.06 568.02 C 133.24 567.52 130.02 567.23 127.88 565.14 C 125.61 561.90 124.83 557.92 123.48 554.27 C 111.74 521.78 100.09 489.26 88.34 456.78 Z" />
<path fill="#e84e3f" d=" M 66.29 462.15 C 71.79 459.96 77.11 457.27 82.84 455.71 C 80.86 459.88 77.80 463.36 75.14 467.09 C 69.17 475.45 63.10 483.73 57.17 492.12 C 55.65 494.33 53.87 496.35 51.96 498.24 C 50.30 488.86 49.02 479.41 48.06 469.94 C 53.98 466.98 60.21 464.74 66.29 462.15 Z" />
<path fill="#e84e3f" d=" M 81.88 459.87 C 83.01 457.90 85.12 457.37 87.18 456.97 C 99.55 492.15 112.36 527.18 124.99 562.27 C 126.87 566.65 124.64 571.26 122.36 575.00 L 61.97 575.00 C 61.57 569.48 60.98 563.98 60.10 558.52 C 57.61 543.07 55.94 527.50 53.60 512.03 C 53.17 508.39 52.27 504.76 52.61 501.09 C 54.16 497.44 57.04 494.60 59.31 491.41 C 66.95 480.98 74.24 470.29 81.88 459.87 Z" />
<path fill="#e84e3f" d=" M 666.93 459.33 C 668.49 459.03 670.46 457.83 671.51 459.70 C 665.14 476.92 659.12 494.27 652.78 511.51 C 649.29 521.32 645.45 531.02 642.23 540.93 C 639.93 540.24 637.64 539.52 635.40 538.69 C 637.15 526.58 636.96 514.25 638.32 502.07 C 638.72 498.05 638.43 493.99 638.90 489.98 C 639.99 482.19 639.64 474.30 640.48 466.49 C 649.10 463.41 658.20 462.04 666.93 459.33 Z" />
<path fill="#e84e3f" d=" M 672.56 460.76 C 673.02 458.81 675.57 459.00 676.72 460.15 C 684.10 466.96 691.17 474.12 698.56 480.93 C 689.61 492.86 680.40 504.58 671.40 516.47 C 664.06 525.47 657.51 535.15 649.82 543.85 C 647.64 543.32 645.69 542.14 643.73 541.10 C 650.51 520.52 658.42 500.33 665.55 479.87 C 668.14 473.59 669.93 467.01 672.56 460.76 Z" />
<path fill="#e84e3f" d=" M 603.97 475.57 C 615.43 472.23 627.06 469.41 638.74 467.01 C 638.88 479.06 637.64 491.03 636.85 503.04 C 636.07 515.10 635.17 527.16 634.52 539.23 C 630.90 539.58 627.30 540.13 623.77 540.96 C 621.28 534.50 619.70 527.74 617.51 521.19 C 613.25 505.90 608.13 490.87 603.97 475.57 Z" />
<path fill="#e84e3f" d=" M 1029.12 495.33 C 1055.15 485.46 1081.22 475.68 1107.32 466.00 C 1110.54 475.93 1113.59 485.93 1116.32 496.02 C 1118.57 504.35 1121.53 512.49 1123.50 520.90 C 1124.22 523.25 1123.26 526.41 1120.65 527.02 C 1112.02 528.08 1103.29 528.28 1094.67 529.43 C 1092.90 527.73 1091.25 525.87 1089.22 524.51 C 1085.82 523.01 1082.77 525.75 1080.13 527.50 C 1063.47 523.41 1046.84 519.21 1030.22 515.02 C 1030.58 508.43 1030.01 501.86 1029.12 495.33 Z" />
<path fill="#e84e3f" d=" M 28.25 477.99 C 34.48 475.57 40.38 472.13 47.06 471.04 C 47.67 479.76 49.17 488.37 50.40 497.01 C 51.12 500.19 49.37 503.07 47.56 505.53 C 31.50 527.27 16.07 549.47 0.00 571.19 L 0.00 528.53 C 3.94 516.09 9.44 504.18 13.30 491.70 C 14.37 488.75 15.07 485.48 17.20 483.09 C 20.53 480.73 24.56 479.66 28.25 477.99 Z" />
<path fill="#e84e3f" d=" M 577.72 482.00 C 585.89 479.84 594.12 477.96 602.35 476.06 C 604.56 481.18 605.56 486.69 607.30 491.96 C 610.87 502.02 613.33 512.43 616.69 522.56 C 618.27 529.03 620.74 535.26 622.06 541.80 C 619.95 542.90 617.85 544.01 615.75 545.12 C 604.44 530.69 593.73 515.81 582.67 501.19 C 580.30 497.77 577.44 494.68 575.48 491.01 C 576.53 488.08 577.65 485.15 577.72 482.00 Z" />
<path fill="#e84e3f" d=" M 673.17 516.26 C 682.22 504.94 690.44 492.97 699.87 481.97 C 706.49 488.42 713.17 494.82 720.05 501.00 C 726.39 507.67 733.54 513.48 740.05 519.98 C 750.41 530.27 761.14 540.17 771.91 550.01 C 771.13 552.47 770.30 554.93 769.41 557.36 C 764.61 558.03 759.80 558.48 754.96 558.66 C 732.85 560.85 710.74 563.17 688.59 564.93 C 680.40 565.95 672.20 566.80 663.98 567.41 C 662.81 558.64 658.32 550.65 651.70 544.84 C 658.10 534.76 666.22 525.94 673.17 516.26 Z" />
<path fill="#e84e3f" d=" M 0.00 489.99 C 4.65 487.43 9.65 485.57 14.73 484.04 C 9.98 497.26 5.55 510.61 0.00 523.53 L 0.00 489.99 Z" />
<path fill="#e84e3f" d=" M 287.26 497.13 C 289.72 497.86 291.83 499.40 294.01 500.71 C 285.14 525.47 276.19 550.21 267.40 575.00 L 216.29 575.00 C 215.61 573.92 214.94 572.83 214.30 571.74 C 222.75 562.70 231.78 554.23 240.02 544.99 C 254.11 530.78 268.22 516.61 281.93 502.03 C 283.59 500.28 285.23 498.46 287.26 497.13 Z" />
<path fill="#e84e3f" d=" M 302.45 500.97 C 305.61 500.19 308.31 498.21 311.45 497.38 C 321.29 508.25 330.47 519.77 340.03 530.91 C 345.43 537.80 351.64 544.01 356.86 551.05 C 356.39 553.10 355.44 555.15 355.68 557.29 C 357.30 560.48 362.33 558.94 364.02 562.16 C 366.74 566.28 368.63 570.90 371.41 575.00 L 269.49 575.00 C 270.42 567.81 273.90 561.32 276.20 554.53 C 282.38 536.86 288.64 519.22 295.06 501.64 C 297.53 501.48 300.02 501.46 302.45 500.97 Z" />
<path fill="#e84e3f" d=" M 1180.99 506.69 C 1187.31 503.90 1193.92 501.78 1200.00 498.48 L 1200.00 575.00 L 1162.75 575.00 C 1153.02 561.75 1143.71 548.19 1134.05 534.89 C 1132.74 532.86 1130.78 530.61 1131.68 528.03 C 1135.37 525.10 1140.06 523.93 1144.30 522.02 C 1156.46 516.74 1168.79 511.88 1180.99 506.69 Z" />
<path fill="#e84e3f" d=" M 422.93 499.91 C 481.99 519.69 540.78 540.23 599.84 560.00 C 601.31 560.52 602.76 561.12 604.09 561.97 C 604.45 566.30 603.89 570.65 603.87 575.00 L 441.66 575.00 C 437.96 565.57 435.70 555.67 432.55 546.05 C 428.70 532.98 424.52 520.00 420.74 506.91 C 419.61 504.29 421.79 502.07 422.93 499.91 Z" />
<path fill="#e84e3f" d=" M 826.74 507.82 C 829.68 504.89 833.59 502.07 837.96 502.64 C 848.60 503.92 859.34 503.48 870.03 503.85 C 879.99 504.78 890.01 504.49 900.00 504.91 C 908.64 505.81 917.35 505.36 926.02 506.06 C 932.80 506.56 939.60 506.46 946.40 506.42 C 946.75 509.30 947.23 512.19 947.23 515.11 C 944.11 516.95 940.37 517.16 936.94 518.11 C 888.91 529.73 840.93 541.62 792.91 553.32 C 790.18 554.21 788.98 550.88 788.02 548.98 C 790.55 544.41 795.02 541.35 798.40 537.44 C 807.63 527.36 817.33 517.72 826.74 507.82 Z" />
<path fill="#e84e3f" d=" M 33.27 527.40 C 39.28 519.43 44.63 510.97 51.00 503.28 C 51.67 507.35 52.29 511.44 52.87 515.54 C 55.29 535.38 58.59 555.11 60.74 575.00 L 0.00 575.00 L 0.00 574.12 C 10.58 558.20 22.29 543.05 33.27 527.40 Z" />
<path fill="#e84e3f" d=" M 416.13 504.95 C 416.80 505.02 418.13 505.17 418.80 505.25 C 426.01 527.88 432.20 550.82 439.76 573.34 C 439.37 573.76 438.60 574.59 438.21 575.00 L 411.73 575.00 C 411.15 565.95 412.65 556.97 413.07 547.95 C 413.74 533.59 415.02 519.27 416.13 504.95 Z" />
<path fill="#e84e3f" d=" M 1029.78 516.34 C 1046.60 520.48 1063.38 524.80 1080.19 528.97 C 1080.31 530.34 1080.45 531.72 1080.61 533.11 C 1072.74 540.03 1064.85 546.93 1057.10 553.99 C 1045.77 546.35 1034.58 538.43 1023.69 530.17 C 1026.12 525.74 1028.00 521.05 1029.78 516.34 Z" />
<path fill="#e84e3f" d=" M 929.79 521.28 C 935.61 520.14 941.18 517.88 947.09 517.20 C 949.40 520.62 950.55 524.64 952.05 528.45 C 935.11 538.81 917.70 548.37 900.78 558.77 C 891.35 563.99 882.36 569.97 872.83 575.00 L 795.13 575.00 C 792.93 572.00 790.71 569.02 788.53 566.02 C 790.23 562.48 791.37 558.71 792.10 554.85 C 837.98 543.60 883.92 532.56 929.79 521.28 Z" />
<path fill="#e84e3f" d=" M 1094.95 530.50 C 1104.27 529.95 1113.54 528.78 1122.87 528.29 C 1123.45 531.10 1123.37 534.02 1121.94 536.59 C 1115.91 549.34 1110.27 562.27 1104.20 575.00 L 1090.56 575.00 C 1090.65 563.62 1089.46 552.29 1089.33 540.92 C 1089.01 536.62 1092.65 533.67 1094.95 530.50 Z" />
<path fill="#e84e3f" d=" M 918.85 549.73 C 930.23 543.21 941.26 536.08 952.88 529.97 C 956.12 534.08 959.79 537.84 963.81 541.22 C 955.42 552.69 946.62 563.88 937.77 575.00 L 876.12 575.00 C 890.30 566.47 904.54 558.03 918.85 549.73 Z" />
<path fill="#e84e3f" d=" M 1125.80 532.66 C 1127.33 532.32 1128.92 532.23 1130.50 532.06 C 1140.56 546.43 1150.87 560.61 1160.89 575.00 L 1106.52 575.00 C 1107.12 572.65 1107.90 570.35 1108.90 568.14 C 1113.70 557.95 1118.32 547.68 1122.94 537.41 C 1123.74 535.75 1124.50 534.01 1125.80 532.66 Z" />
<path fill="#e84e3f" d=" M 1018.19 536.94 C 1019.49 535.05 1021.16 533.45 1022.77 531.82 C 1032.66 537.77 1041.63 545.10 1051.21 551.52 C 1052.46 552.74 1055.13 553.64 1054.77 555.76 C 1051.67 559.37 1047.62 562.00 1044.02 565.06 C 1036.22 557.17 1028.80 548.92 1020.94 541.10 C 1019.92 539.80 1018.16 538.74 1018.19 536.94 Z" />
<path fill="#e84e3f" d=" M 1058.34 554.80 C 1065.85 548.02 1073.42 541.29 1080.99 534.56 C 1082.42 535.34 1083.86 536.14 1085.31 536.93 C 1086.80 549.53 1086.53 562.25 1086.55 574.91 C 1081.17 571.54 1075.99 567.88 1070.97 564.03 C 1068.87 562.67 1066.82 560.84 1064.40 560.35 C 1065.87 562.59 1068.39 563.75 1070.42 565.41 C 1075.02 568.36 1079.31 571.76 1083.71 575.00 L 1053.54 575.00 C 1050.68 572.19 1048.10 569.11 1045.41 566.15 C 1049.12 562.73 1052.86 559.35 1056.76 556.16 C 1059.14 557.50 1061.48 559.00 1064.10 559.88 C 1062.31 558.04 1060.30 556.44 1058.34 554.80 Z" />
<path fill="#e84e3f" d=" M 1006.48 545.16 C 1009.91 542.98 1013.36 540.85 1016.85 538.79 C 1025.71 547.78 1034.27 557.06 1043.09 566.11 C 1039.96 569.17 1036.90 572.32 1033.44 575.00 L 1019.76 575.00 C 1015.12 565.15 1010.72 555.18 1006.48 545.16 Z" />
<path fill="#e84e3f" d=" M 965.10 543.00 C 967.25 542.94 969.17 544.42 971.17 545.16 C 975.12 547.18 979.67 547.58 983.60 549.64 C 982.97 558.11 981.23 566.48 981.20 575.00 L 939.87 575.00 C 945.57 566.76 952.14 559.18 958.07 551.11 C 960.28 548.31 962.21 545.17 965.10 543.00 Z" />
<path fill="#e84e3f" d=" M 989.81 549.29 C 994.97 548.60 1000.07 547.51 1005.07 546.06 C 1009.69 555.57 1013.72 565.36 1018.07 575.00 L 989.70 575.00 C 989.82 566.43 989.63 557.85 989.81 549.29 Z" />
<path fill="#e84e3f" d=" M 984.96 549.20 C 985.83 549.18 987.58 549.15 988.45 549.13 C 988.41 557.75 988.34 566.38 988.55 575.00 L 982.74 575.00 C 982.41 566.34 984.37 557.81 984.96 549.20 Z" />
<path fill="#e84e3f" d=" M 663.51 568.65 C 698.75 565.58 733.95 562.03 769.15 558.60 C 770.84 561.34 772.52 564.09 774.20 566.85 C 773.53 569.56 772.85 572.28 772.20 575.00 L 663.93 575.00 C 663.72 572.88 663.62 570.76 663.51 568.65 Z" />
<path fill="#e84e3f" d=" M 775.32 568.23 C 779.32 567.58 783.44 567.20 787.51 567.51 C 790.02 569.56 791.57 572.49 793.57 575.00 L 773.91 575.00 C 774.29 572.73 774.61 570.43 775.32 568.23 Z" />
<path fill="#e84e3f" d=" M 1036.04 575.00 C 1038.71 572.39 1041.29 569.68 1044.05 567.16 C 1046.69 569.70 1049.18 572.38 1051.75 575.00 L 1036.04 575.00 Z" />
<path fill="#e84e3f" d=" M 130.44 569.31 C 137.18 569.02 143.85 570.20 150.50 571.17 C 158.55 572.36 166.77 572.61 174.61 575.00 L 134.73 575.00 C 133.08 573.27 131.72 571.30 130.44 569.31 Z" />
<path fill="#e84e3f" d=" M 126.40 571.39 C 129.09 571.78 131.34 573.25 133.36 575.00 L 123.27 575.00 C 124.35 573.82 125.38 572.60 126.40 571.39 Z" />
</svg>
